<?xml version="1.0" encoding="UTF-8" standalone="no"?>
<!-- Created with Inkscape (http://www.inkscape.org/) -->

<svg
   xmlns:dc="http://purl.org/dc/elements/1.1/"
   xmlns:cc="http://creativecommons.org/ns#"
   xmlns:rdf="http://www.w3.org/1999/02/22-rdf-syntax-ns#"
   xmlns:svg="http://www.w3.org/2000/svg"
   xmlns="http://www.w3.org/2000/svg"
   xmlns:sodipodi="http://sodipodi.sourceforge.net/DTD/sodipodi-0.dtd"
   xmlns:inkscape="http://www.inkscape.org/namespaces/inkscape"
   width="210mm"
   height="297mm"
   viewBox="0 0 744.09448819 1052.3622047"
   id="svg2"
   version="1.1"
   inkscape:version="0.91 r13725"
   sodipodi:docname="drawing-1.svg">
  <defs
     id="defs4" />
  <sodipodi:namedview
     id="base"
     pagecolor="#ffffff"
     bordercolor="#666666"
     borderopacity="1.0"
     inkscape:pageopacity="0.0"
     inkscape:pageshadow="2"
     inkscape:zoom="0.432375"
     inkscape:cx="494.38127"
     inkscape:cy="704.68164"
     inkscape:document-units="px"
     inkscape:current-layer="layer1"
     showgrid="false"
     inkscape:window-width="1920"
     inkscape:window-height="1058"
     inkscape:window-x="1912"
     inkscape:window-y="-8"
     inkscape:window-maximized="1" />
  <metadata
     id="metadata7">
    <rdf:RDF>
      <cc:Work
         rdf:about="">
        <dc:format>image/svg+xml</dc:format>
        <dc:type
           rdf:resource="http://purl.org/dc/dcmitype/StillImage" />
      </cc:Work>
    </rdf:RDF>
  </metadata>
  <g
     inkscape:label="Layer 1"
     inkscape:groupmode="layer"
     id="layer1">
    <path
       style="fill:#8dcf8a;fill-opacity:0.88627451;fill-rule:evenodd;stroke:#872d62;stroke-width:5.68763113px;stroke-linecap:butt;stroke-linejoin:miter;stroke-opacity:0.68627451"
       d="m 508.26967,1049.3937 0,-604.77955 230.54917,0 L 373.78273,4.7745101"
       id="path3338"
       inkscape:connector-curvature="0"
       sodipodi:nodetypes="cccc" />
    <path
       style="fill:#8dcf8a;fill-opacity:0.88627451;fill-rule:evenodd;stroke:#872d62;stroke-width:5.68763113px;stroke-linecap:butt;stroke-linejoin:miter;stroke-opacity:0.68627451"
       d="m 241.59439,1049.4092 0,-604.77955 -230.549212,0 L 376.08134,4.7899999"
       id="path3338-9"
       inkscape:connector-curvature="0"
       sodipodi:nodetypes="cccc" />
    <path
       style="fill:#8dcf8a;fill-opacity:0.88627451;fill-rule:evenodd;stroke:#872d62;stroke-width:5.56759644px;stroke-linecap:butt;stroke-linejoin:miter;stroke-opacity:0.68627451"
       d="m 243.08894,1047.0631 263.00173,0"
       id="path3355"
       inkscape:connector-curvature="0" />
    <path
       style="fill:#8dcf8a;fill-opacity:0.88627451;fill-rule:evenodd;stroke:none;stroke-width:0;stroke-linecap:round;stroke-linejoin:bevel;stroke-miterlimit:0;stroke-dasharray:none;stroke-opacity:0.63137255"
       d="m 246.80175,1028.8456 c 0,-12.2354 125.76463,-1000.961952 127.93626,-1005.799203 1.14963,-2.560903 129.24086,999.590903 129.13546,1010.322103 l -0.10541,10.7382 -128.48309,0 -128.48314,0 0,-15.2611 z"
       id="path4352"
       inkscape:connector-curvature="0" />
    <path
       style="fill:#8dcf8a;fill-opacity:0.88627451;fill-rule:evenodd;stroke:#fda8aa;stroke-width:0.03173903;stroke-opacity:0.51372549"
       d="m 406.6343,265.03017 c -0.007,-0.0338 -0.16222,-1.19594 -0.33883,-2.58389 -0.1772,-1.3879 -0.39702,-3.10337 -0.48834,-3.81209 -0.0915,-0.70871 -0.29406,-2.2792 -0.44975,-3.48996 -0.15613,-1.21072 -0.32532,-2.52147 -0.37673,-2.91271 -0.0543,-0.39112 -0.27921,-2.15507 -0.50723,-3.9195 -0.62633,-4.85486 -0.73878,-5.72418 -0.88118,-6.8188 -0.0718,-0.55368 -0.30843,-2.38388 -0.52556,-4.06711 -0.36653,-2.8454 -0.47138,-3.65315 -0.71351,-5.51681 -0.0834,-0.63941 -0.3029,-2.34892 -0.61884,-4.80536 -0.0609,-0.47963 -0.12207,-0.92989 -0.1349,-1.00001 l -0.0217,-0.12748 0.33811,0 0.3382,0 0.0217,0.14095 c 0.0276,0.17607 5.01064,38.89039 5.01064,38.93828 0,0.0241 -0.0816,0.0338 -0.31787,0.0338 -0.29958,0 -0.31924,-0.004 -0.33617,-0.0607 z"
       id="path4354"
       inkscape:connector-curvature="0" />
    <path
       style="fill:#8dcf8a;fill-opacity:0.88627451;fill-rule:evenodd;stroke:none;stroke-width:0;stroke-linecap:round;stroke-linejoin:bevel;stroke-miterlimit:0;stroke-dasharray:none;stroke-opacity:0.63137255"
       d="M 471.97394,763.11018 C 471.5253,760.3306 466.6409,722.83882 461.11973,679.79511 448.15298,578.70499 421.28637,369.95474 395.85351,172.68507 384.77521,86.75649 375.86769,15.848063 376.05905,15.110795 c 0.19132,-0.73727 80.32457,95.038945 178.07391,212.836035 l 177.72607,214.17654 -114.00077,0.14744 -114.00071,0.14744 0,162.87286 0,162.87283 -15.53396,0 -15.53391,0 -0.81574,-5.05376 z"
       id="path4364"
       inkscape:connector-curvature="0" />
    <path
       style="fill:#8dcf8a;fill-opacity:0.88627451;fill-rule:evenodd;stroke:none;stroke-width:0;stroke-linecap:round;stroke-linejoin:bevel;stroke-miterlimit:0;stroke-dasharray:none;stroke-opacity:0.63137255"
       d="m 472.46576,767.34241 c 0,-0.45189 -0.84721,-7.14454 -1.88266,-14.87253 -1.03546,-7.72806 -6.69495,-51.47779 -12.57668,-97.22167 -9.67923,-75.27839 -15.60988,-121.35262 -37.65578,-292.54127 -36.34208,-282.199668 -44.58912,-346.973383 -44.29,-347.862258 0.35147,-1.044516 36.81656,42.669259 271.3889,325.336878 l 84.59664,101.94181 -114.09432,0.14744 -114.09431,0.14744 0,162.87286 0,162.87283 -15.69593,0 c -12.73431,0 -15.69586,-0.155 -15.69586,-0.82153 z"
       id="path4366"
       inkscape:connector-curvature="0" />
    <path
       style="fill:#8dcf8a;fill-opacity:0.88627451;fill-rule:evenodd;stroke:none;stroke-width:0;stroke-linecap:round;stroke-linejoin:bevel;stroke-miterlimit:0;stroke-dasharray:none;stroke-opacity:0.63137255"
       d="m 279.89497,764.84289 c 0.31041,-1.82657 7.33262,-57.12206 15.60488,-122.87888 25.02721,-198.94317 71.23385,-559.037048 77.02671,-600.278483 0.95085,-6.769438 1.97012,-12.41905 2.265,-12.554691 0.29487,-0.135642 1.2158,4.883175 2.04644,11.152923 2.29047,17.28822 21.0418,160.809761 24.31632,186.115691 2.03649,15.73832 3.10603,21.22388 3.65987,18.77117 0.43038,-1.906 0.6235,0.30322 0.42918,4.90938 -0.24379,5.77808 -0.0473,7.38984 0.63352,5.19816 0.74219,-2.38912 0.85837,-1.74476 0.46864,2.59908 -0.28504,3.17666 1.47499,21.11035 3.91113,39.8526 8.30539,63.89622 26.9827,209.48359 38.345,298.8946 6.23697,49.07936 13.59283,106.85936 16.34635,128.39999 2.75353,21.54061 5.00641,40.05909 5.00641,41.15214 l 0,1.98737 -95.31194,0 -95.31194,0 0.56443,-3.32105 z"
       id="path4368"
       inkscape:connector-curvature="0" />
    <path
       style="fill:#8dcf8a;fill-opacity:0.88627451;fill-rule:evenodd;stroke:none;stroke-width:0;stroke-linecap:round;stroke-linejoin:bevel;stroke-miterlimit:0;stroke-dasharray:none;stroke-opacity:0.63137255"
       d="m 246.44496,605.28806 0,-162.8759 -114.3707,0 c -64.699452,0 -114.188943,-0.21913 -113.952167,-0.50457 C 177.16558,250.17672 373.957,13.39914 374.1802,13.501814 c 0.16659,0.07662 -3.65997,30.791016 -8.50347,68.254201 -4.8435,37.463185 -8.64854,69.154515 -8.45563,70.425165 0.19285,1.27068 2.50487,-14.32382 5.13767,-34.65445 11.21522,-86.604176 11.82813,-90.775546 12.94222,-88.08003 0.51227,1.239439 25.26184,189.40125 25.78011,195.99672 l 0.1885,2.39997 0.94274,-2.59908 c 0.58931,-1.62476 0.79097,0.10735 0.53794,4.62059 -0.28922,5.15824 -0.0997,6.47756 0.66385,4.62059 0.78311,-1.90464 0.93697,-0.97872 0.57587,3.46544 -0.31271,3.84825 -0.0832,5.64238 0.62789,4.90938 0.81824,-0.8434 1.18074,-0.14198 1.34319,2.59909 0.62931,10.61871 1.22248,15.79291 1.84326,16.07845 0.37883,0.17425 0.43411,3.71038 0.1229,7.85808 -0.35437,4.72175 -0.19132,6.56951 0.43634,4.94217 0.72125,-1.87036 0.85497,-1.14165 0.47685,2.59909 -0.28899,2.85899 2.8827,31.44891 7.04817,63.53315 7.97033,61.39083 35.3796,275.51924 47.13838,368.25731 3.81007,30.04905 6.92742,55.71498 6.92742,57.03544 l 0,2.40085 -95.50705,0 -95.50703,0 0.75334,-3.89862 c 0.41432,-2.14423 6.66989,-50.94203 13.90118,-108.43952 7.23133,-57.4975 21.92261,-173.15672 32.64729,-257.02047 10.72467,-83.86377 19.33596,-153.38925 19.13621,-154.50108 -0.1998,-1.11184 -3.63799,23.44951 -7.64048,54.58076 -7.72745,60.10383 -31.57187,245.29103 -49.24551,382.4643 -5.86056,45.4869 -10.65563,83.62845 -10.65563,84.75901 l 0,2.05562 -15.69588,0 -15.69587,0 0,-162.87588 z M 346.56238,234.91868 c -0.26436,-1.35009 -0.48066,-0.24548 -0.48066,2.45468 0,2.70017 0.2163,3.80477 0.48066,2.4547 0.26435,-1.35009 0.26435,-3.55931 0,-4.90938 z m 1.25569,-9.81876 c -0.26438,-1.35009 -0.48069,-0.24548 -0.48069,2.45469 0,2.70016 0.21631,3.80476 0.48069,2.45469 0.26436,-1.35008 0.26436,-3.55931 0,-4.90938 z m 1.25566,-9.81877 c -0.26437,-1.35008 -0.48067,-0.24547 -0.48067,2.4547 0,2.70015 0.2163,3.80476 0.48067,2.45468 0.26436,-1.35007 0.26436,-3.5593 0,-4.90938 z m 1.25567,-9.81876 c -0.26436,-1.35007 -0.48068,-0.24547 -0.48068,2.4547 0,2.70015 0.21629,3.80476 0.48068,2.45468 0.26436,-1.35007 0.26436,-3.5593 0,-4.90938 z m 1.25567,-9.81875 c -0.26437,-1.35008 -0.48065,-0.24548 -0.48065,2.45468 0,2.70016 0.21628,3.80477 0.48065,2.45469 0.26436,-1.35006 0.26436,-3.5593 0,-4.90937 z m 2.50392,-17.47163 c -0.0589,-3.8018 -0.11697,-3.71565 -0.97456,1.44395 -0.50162,3.01782 -0.88385,7.30631 -0.84943,9.52997 0.0589,3.80181 0.11697,3.71565 0.97456,-1.44394 0.50162,-3.01781 0.88387,-7.30631 0.84943,-9.52998 z m 2.50442,-19.63751 c -0.0521,-3.78936 -0.1129,-3.69876 -0.96764,1.44395 -0.50159,3.01781 -0.88209,7.43624 -0.84557,9.81875 0.0641,4.17809 0.0984,4.12685 0.96763,-1.44394 0.49568,-3.17666 0.87617,-7.5951 0.84558,-9.81876 z"
       id="path4370"
       inkscape:connector-curvature="0" />
    <path
       style="fill:#8dcf8a;fill-opacity:0.88627451;fill-rule:evenodd;stroke:none;stroke-width:0;stroke-linecap:round;stroke-linejoin:bevel;stroke-miterlimit:0;stroke-dasharray:none;stroke-opacity:0.63137255"
       d="m 246.44496,605.28806 0,-162.8759 -114.26607,0 c -62.846352,0 -114.266081,-0.0976 -114.266081,-0.21687 0,-0.18664 269.553731,-324.99751 333.512001,-401.88028 12.33658,-14.829536 22.55093,-26.907246 22.69856,-26.839352 0.14773,0.0679 -3.36902,28.445421 -7.81462,63.061173 -4.44563,34.615739 -8.01359,64.107299 -7.92882,65.536809 0.20545,3.4642 2.28964,-11.13077 9.19627,-64.399503 3.17144,-24.460263 6.25608,-45.382885 6.85478,-46.494713 l 1.08854,-2.02151 0.13426,2.02151 c 0.0739,1.111828 0.96638,7.869446 1.98349,15.016926 1.01708,7.147478 6.6613,50.032356 12.54273,95.29971 5.88142,45.26736 10.88986,83.08405 11.12989,84.03703 2.006,7.96469 -0.96972,-17.63982 -12.34623,-106.23243 -7.2515,-56.469767 -13.18455,-103.089023 -13.18455,-103.598329 0,-0.579377 0.43748,-0.720618 1.16872,-0.377317 1.4328,0.672669 52.85658,62.39224 269.94354,323.990166 l 85.31535,102.80819 -114.17457,0.14744 -114.17457,0.14744 0,162.87286 0,162.87283 -15.69592,0 c -8.63272,0 -15.69587,-0.16552 -15.69587,-0.36778 0,-0.20233 -2.2499,-17.68117 -4.99977,-38.84186 C 458.9654,663.54038 453.12901,618.25956 431.0909,446.74397 419.3764,355.5739 409.55299,279.94058 409.26104,278.66991 c -2.07134,-9.01568 3.53297,36.93959 24.9344,204.46123 30.99034,242.58008 35.75902,280.30831 35.75902,282.9148 l 0,2.118 -95.53096,0 -95.53096,0 0.74899,-3.60983 c 0.41193,-1.98541 1.58492,-10.36745 2.60664,-18.62676 3.86505,-31.24398 31.29854,-247.63623 45.17736,-356.35403 7.94775,-62.25742 14.3835,-114.36904 14.30167,-115.80359 -0.23125,-4.05395 -6.41045,43.20207 -50.73085,387.96927 -7.23775,56.30245 -13.15959,103.28087 -13.15959,104.39651 l 0,2.02843 -15.69589,0 -15.69588,0 0,-162.87588 z M 408.08724,269.29722 c -0.27183,-1.19833 -0.49876,-0.35944 -0.50434,1.86422 -0.005,2.22367 0.21672,3.20412 0.4942,2.17879 0.2774,-1.02533 0.28196,-2.84469 0.0117,-4.04301 l 1e-4,0 z m -65.29186,-5.49984 c -0.26439,-1.35008 -0.4807,-0.24547 -0.4807,2.45468 0,2.70017 0.21631,3.80478 0.4807,2.4547 0.26435,-1.35008 0.26435,-3.5593 0,-4.90938 z m 1.25729,-9.22592 c -0.26528,-1.35847 -0.48603,-0.39069 -0.49059,2.15064 -0.005,2.54131 0.2124,3.6528 0.48228,2.46995 0.26983,-1.18285 0.27357,-3.2621 0.008,-4.62059 l -4.9e-4,0 z m 1.23567,-7.80458 c -0.28862,-0.87795 -0.53249,-0.29671 -0.54191,1.2916 -0.008,1.58833 0.22673,2.30665 0.52476,1.59628 0.29805,-0.71039 0.30579,-2.00993 0.0174,-2.88788 l 6e-5,0 z m 59.00167,-7.22762 c -0.29929,-0.71473 -0.54418,-0.12995 -0.54418,1.29955 0,1.4295 0.24489,2.0143 0.54418,1.29954 0.29931,-0.71475 0.29931,-1.88433 0,-2.59909 z m -57.74766,-3.75423 c -0.2877,-0.87358 -0.52312,-0.15883 -0.52312,1.58833 0,1.74716 0.23542,2.4619 0.52312,1.58833 0.2877,-0.87358 0.2877,-2.30308 0,-3.17666 z m 56.51584,-5.47661 c -0.27946,-1.0381 -0.51388,-0.328 -0.52092,1.57799 -0.007,1.90601 0.2216,2.75536 0.5081,1.88745 0.28651,-0.86787 0.29227,-2.42733 0.0132,-3.46544 z m -55.26017,-4.34215 c -0.2877,-0.87358 -0.52309,-0.15883 -0.52309,1.58834 0,1.74717 0.23539,2.4619 0.52309,1.58832 0.28771,-0.87358 0.28771,-2.30308 0,-3.17666 z m 1.25567,-9.81876 c -0.2877,-0.87357 -0.5231,-0.15882 -0.5231,1.58834 0,1.74717 0.2354,2.4619 0.5231,1.58832 0.28769,-0.87357 0.28769,-2.30308 0,-3.17666 z m 1.25566,-9.81876 c -0.2877,-0.87357 -0.52308,-0.15883 -0.52308,1.58834 0,1.74717 0.23538,2.4619 0.52308,1.58832 0.28773,-0.87358 0.28773,-2.30307 0,-3.17666 z m 1.25567,-9.81876 c -0.28768,-0.87358 -0.52309,-0.15883 -0.52309,1.58833 0,1.74718 0.23541,2.46192 0.52309,1.58833 0.28773,-0.87358 0.28773,-2.30307 0,-3.17666 z m 2.50049,-17.18282 -0.0388,-3.46544 -0.8885,4.3318 c -0.48871,2.3825 -0.87104,5.89126 -0.84962,7.79724 l 0.0388,3.46545 0.88851,-4.3318 c 0.48867,-2.38249 0.87101,-5.89126 0.84962,-7.79725 z m 2.55084,-19.92632 c -0.0712,-2.89009 -0.15859,-2.78588 -0.96691,1.15517 -0.4887,2.38248 -0.87492,6.0212 -0.85823,8.08603 0.0293,3.63374 0.0604,3.59668 0.96691,-1.15516 0.51516,-2.70015 0.90134,-6.33886 0.85823,-8.08604 z m 1.22704,-12.56222 c -0.28772,-0.87359 -0.52311,-0.15884 -0.52311,1.58832 0,1.74716 0.23539,2.46192 0.52311,1.58834 0.28771,-0.87359 0.28771,-2.30308 0,-3.17666 z"
       id="path4372"
       inkscape:connector-curvature="0" />
    <path
       style="fill:#8dcf8a;fill-opacity:0.88627451;fill-rule:evenodd;stroke:none;stroke-width:0;stroke-linecap:round;stroke-linejoin:bevel;stroke-miterlimit:0;stroke-dasharray:none;stroke-opacity:0.63137255"
       d="m 246.44496,605.28806 0,-162.8759 -114.26607,0 c -62.846352,0 -114.266081,-0.12077 -114.266081,-0.26839 0,-0.25813 46.565504,-56.42452 205.681141,-248.08847 C 348.58255,43.499344 370.66143,16.97077 372.66431,14.941952 c 1.88614,-1.910559 1.91563,-1.848508 1.26545,2.66448 -2.51921,17.486643 -5.79508,46.124388 -5.46023,47.733304 0.22184,1.065936 1.4671,-6.098905 2.76724,-15.921874 1.30016,-9.822967 2.80547,-18.529898 3.34518,-19.348732 0.81841,-1.241731 0.99917,-1.290531 1.08922,-0.294061 0.0593,0.657101 4.60203,35.354865 10.09482,77.106131 5.49279,41.75129 10.71954,81.62939 11.61495,88.61805 0.89542,6.98864 1.79185,11.79694 1.99203,10.68511 0.27388,-1.52103 -17.7797,-146.683137 -23.09396,-185.690059 -0.55239,-4.054689 -0.39075,-5.603635 0.54249,-5.198166 1.72908,0.751235 19.89789,22.53645 262.04235,314.200285 50.63648,60.99183 92.45517,111.34907 92.93042,111.90499 0.8191,0.95814 -5.09151,1.01075 -113.53632,1.01075 l -114.4004,0 0,162.8759 0,162.87588 -15.58877,0 -15.58877,0 -0.76805,-4.18739 c -0.42244,-2.30309 -4.73204,-35.24647 -9.57689,-73.20752 -4.84484,-37.96107 -10.71103,-83.70493 -13.03597,-101.65304 -2.32494,-17.94812 -11.20103,-86.82384 -19.72462,-153.05714 -8.52358,-66.2333 -15.65935,-119.51451 -15.85723,-118.40269 -0.19785,1.11183 10.95395,90.52029 24.78186,198.68549 29.93617,234.16771 31.45404,246.20107 31.45473,249.36762 l 5.8e-4,2.45467 -95.53814,0 -95.53815,0 0.78212,-4.18739 c 1.91754,-10.2664 39.64757,-312.25029 39.23831,-314.05592 -0.43294,-1.91012 -0.46982,-1.88772 -0.66926,0.40634 -0.11617,1.33532 -7.00201,55.13635 -15.30201,119.55784 -20.10212,156.02498 -25.09057,195.16399 -25.09057,196.85883 l 0,1.4203 -15.69588,0 -15.69588,0 0,-162.87588 z M 320.1933,440.53505 c -0.26438,-1.35008 -0.48068,-0.24547 -0.48068,2.4547 0,2.70015 0.2163,3.80476 0.48068,2.45468 0.26436,-1.35007 0.26436,-3.5593 0,-4.90938 z m 1.25566,-9.81876 c -0.26438,-1.35008 -0.48068,-0.24548 -0.48068,2.45469 0,2.70016 0.2163,3.80477 0.48068,2.45468 0.26437,-1.35006 0.26437,-3.55929 0,-4.90937 z m 2.497,-18.0492 c -0.0521,-3.78935 -0.1129,-3.69875 -0.96762,1.44395 -0.50162,3.01782 -0.88213,7.43625 -0.8456,9.81876 0.0641,4.17809 0.0984,4.12685 0.96767,-1.44395 0.49562,-3.17666 0.87613,-7.59509 0.84555,-9.81876 z m 1.27,-11.40707 c -0.26434,-1.35009 -0.48064,-0.24548 -0.48064,2.45468 0,2.70016 0.2163,3.80477 0.48064,2.45469 0.26437,-1.35009 0.26437,-3.5593 0,-4.90937 z m 1.2557,-9.81876 c -0.26439,-1.35009 -0.48068,-0.24548 -0.48068,2.45468 0,2.70016 0.21629,3.80478 0.48068,2.45469 0.26433,-1.35009 0.26433,-3.5593 0,-4.90937 z m 1.25567,-9.81877 c -0.26437,-1.35008 -0.48069,-0.24546 -0.48069,2.45468 0,2.70018 0.21632,3.80479 0.48069,2.4547 0.26435,-1.35009 0.26435,-3.5593 0,-4.90938 z m 1.25567,-9.81876 c -0.26439,-1.35007 -0.48068,-0.24546 -0.48068,2.45468 0,2.70018 0.21629,3.80479 0.48068,2.45471 0.26434,-1.3501 0.26434,-3.55931 0,-4.90939 z m 1.25728,-9.22591 c -0.26526,-1.35848 -0.48601,-0.3907 -0.49057,2.15063 -0.005,2.54133 0.21238,3.65281 0.48228,2.46995 0.26981,-1.18284 0.27355,-3.2621 0.008,-4.62058 l -4.8e-4,0 z m 1.25568,-9.81876 c -0.26527,-1.35848 -0.48602,-0.3907 -0.4906,2.15063 -0.005,2.54132 0.21239,3.65281 0.48229,2.46995 0.26981,-1.18284 0.27355,-3.2621 0.008,-4.62058 l -4.8e-4,0 z m 1.24934,-10.12283 c -0.27089,-1.19124 -0.49253,-0.21658 -0.49253,2.16592 0,2.38249 0.22164,3.35715 0.49253,2.1659 0.2709,-1.19125 0.2709,-3.14057 0,-4.33182 z m 1.26198,-9.51469 c -0.26524,-1.35848 -0.48603,-0.39069 -0.49058,2.15064 -0.005,2.54131 0.21239,3.65279 0.48229,2.46995 0.26981,-1.18285 0.27355,-3.26211 0.008,-4.62059 l -4.9e-4,0 z m 1.24938,-10.12282 c -0.27091,-1.19124 -0.49255,-0.21658 -0.49255,2.16591 0,2.38249 0.22164,3.35715 0.49255,2.1659 0.2709,-1.19126 0.2709,-3.14056 0,-4.33181 z m 1.25733,-9.22831 c -0.27183,-1.19831 -0.49879,-0.35942 -0.50434,1.86424 -0.005,2.22366 0.21673,3.20412 0.49421,2.17879 0.27739,-1.02533 0.28195,-2.8447 0.0117,-4.04303 l 8e-5,0 z m 76.60059,-5.48456 c -0.26526,-1.35847 -0.48602,-0.39068 -0.49057,2.15063 -0.005,2.54132 0.21238,3.65281 0.48225,2.46996 0.26984,-1.18285 0.27354,-3.26211 0.008,-4.62059 l -4.7e-4,0 z m -75.34492,-4.3342 c -0.27183,-1.19831 -0.49876,-0.35942 -0.50436,1.86424 -0.005,2.22367 0.21675,3.20412 0.49423,2.17879 0.27739,-1.02533 0.28195,-2.84469 0.0117,-4.04303 l 8e-5,0 z m 74.08922,-5.48456 c -0.26523,-1.35848 -0.48601,-0.39068 -0.49056,2.15064 -0.005,2.54131 0.2124,3.6528 0.48228,2.46995 0.26982,-1.18285 0.27354,-3.26211 0.008,-4.62059 l -5e-4,0 z m -72.83355,-4.33419 c -0.27183,-1.19832 -0.49877,-0.35943 -0.50434,1.86423 -0.005,2.22367 0.21672,3.20412 0.4942,2.17879 0.2774,-1.02533 0.28195,-2.84469 0.0117,-4.04302 l 1e-4,0 z m 71.57325,-5.77574 c -0.27183,-1.19833 -0.49877,-0.35944 -0.50436,1.86424 -0.005,2.22365 0.21695,3.2041 0.49423,2.17878 0.2774,-1.02533 0.28195,-2.8447 0.0117,-4.04302 l 9e-5,0 z m -70.32395,-3.75677 c -0.27945,-1.0381 -0.51387,-0.32801 -0.52092,1.57798 -0.007,1.906 0.22161,2.75535 0.50812,1.88746 0.28651,-0.86789 0.29229,-2.42734 0.0132,-3.46544 z m 69.03806,-4.63093 c -0.29928,-0.71476 -0.54416,-0.12996 -0.54416,1.29953 0,1.4295 0.24488,2.01429 0.54416,1.29954 0.29929,-0.71475 0.29929,-1.88434 0,-2.59907 z m -67.80431,-4.03629 c -0.30035,-0.71845 -0.55751,-0.26663 -0.57144,1.00402 -0.0132,1.27065 0.23181,1.85849 0.54609,1.30627 0.31428,-0.55221 0.32567,-1.59184 0.0254,-2.31029 l -4e-5,0 z m 66.52805,-5.49369 c -0.31585,-0.55591 -0.57425,-0.10108 -0.57425,1.01076 0,1.11183 0.2584,1.56667 0.57425,1.01075 0.31582,-0.55591 0.31582,-1.4656 0,-2.02151 z m -65.2743,-5.48695 c -0.29931,-0.71475 -0.54418,-0.12996 -0.54418,1.29953 0,1.42951 0.24487,2.0143 0.54418,1.29955 0.29929,-0.71475 0.29929,-1.88433 0,-2.59908 z m 1.23508,-8.95241 c -0.31586,-0.5559 -0.57426,-0.10107 -0.57426,1.01076 0,1.11184 0.2584,1.56667 0.57426,1.01075 0.31583,-0.55592 0.31583,-1.46559 0,-2.02151 z m 2.47736,-19.34872 c -0.34834,-0.39708 -0.63334,-0.0723 -0.63334,0.72196 0,0.79416 0.285,1.11904 0.63334,0.72196 0.34834,-0.39706 0.34834,-1.04683 0,-1.44392 z m 1.25566,-9.81876 c -0.34833,-0.39708 -0.63334,-0.0723 -0.63334,0.72197 0,0.79415 0.28501,1.11904 0.63334,0.72196 0.34834,-0.39709 0.34834,-1.04684 0,-1.44393 z m 54.07062,-6.35332 c -0.27853,-1.03241 -0.50646,-0.18771 -0.50646,1.87711 0,2.06483 0.22793,2.90954 0.50646,1.87713 0.27855,-1.03242 0.27855,-2.72183 0,-3.75424 z m -52.81494,-3.46544 c -0.34832,-0.39708 -0.63333,-0.0723 -0.63333,0.72197 0,0.79415 0.28501,1.11904 0.63333,0.72196 0.34835,-0.39708 0.34835,-1.04684 0,-1.44393 z m 51.57034,-6.35332 c -0.26437,-1.35007 -0.48067,-0.24546 -0.48067,2.45468 0,2.70016 0.2163,3.80478 0.48067,2.4547 0.26434,-1.35008 0.26434,-3.5593 0,-4.90938 z m -50.31466,-3.46544 c -0.34833,-0.39708 -0.63335,-0.0723 -0.63335,0.72197 0,0.79415 0.28502,1.11904 0.63335,0.72196 0.34835,-0.39708 0.34835,-1.04684 0,-1.44393 z m 1.25568,-9.81877 c -0.34834,-0.39708 -0.63335,-0.0723 -0.63335,0.72197 0,0.79417 0.28501,1.11905 0.63335,0.72198 0.34834,-0.39709 0.34834,-1.04686 0,-1.44395 z m 1.31022,-11.55147 c -0.29928,-0.71475 -0.54418,-0.12997 -0.54418,1.29954 0,1.42949 0.2449,2.01429 0.54418,1.29954 0.29931,-0.71475 0.29931,-1.88433 0,-2.59908 z m 1.25566,-6.93089 c -0.29929,-0.71475 -0.54415,-0.12996 -0.54415,1.29954 0,1.42949 0.24486,2.01429 0.54415,1.29953 0.29931,-0.71473 0.29931,-1.88432 0,-2.59907 z m 1.25569,-12.70663 c -0.29929,-0.71476 -0.54418,-0.12997 -0.54418,1.29953 0,1.42951 0.24489,2.0143 0.54418,1.29955 0.29931,-0.71475 0.29931,-1.88433 0,-2.59908 z m 1.25568,-6.9309 c -0.29931,-0.71474 -0.54418,-0.12995 -0.54418,1.29956 0,1.42949 0.24487,2.01428 0.54418,1.29953 0.29929,-0.71475 0.29929,-1.88433 0,-2.59909 z m 2.51132,-21.37023 c -0.29928,-0.71476 -0.54415,-0.12997 -0.54415,1.29953 0,1.4295 0.24487,2.0143 0.54415,1.29956 0.29931,-0.71476 0.29931,-1.88435 0,-2.59909 z m 1.28589,-9.5171 c -0.27181,-1.19833 -0.49877,-0.35942 -0.50434,1.86424 -0.005,2.22366 0.21673,3.20411 0.49421,2.17877 0.27742,-1.02532 0.28194,-2.84466 0.0117,-4.04301 l 8e-5,0 z m 1.25569,-9.81875 c -0.27184,-1.19834 -0.49878,-0.35942 -0.50437,1.86423 -0.005,2.22366 0.21694,3.20412 0.49423,2.17877 0.27739,-1.02531 0.28195,-2.84467 0.0117,-4.043 l 10e-5,0 z m 1.25401,-9.83164 c -0.27093,-1.19125 -0.49257,-0.2166 -0.49257,2.16589 0,2.38251 0.22164,3.35715 0.49257,2.16591 0.27088,-1.19125 0.27088,-3.14055 0,-4.3318 z m 1.26198,-9.514703 c -0.26527,-1.358476 -0.48602,-0.390688 -0.49058,2.150633 -0.005,2.54133 0.2124,3.6528 0.48227,2.46996 0.26982,-1.18285 0.27353,-3.26213 0.008,-4.620593 l -4.9e-4,0 z m 1.25566,-9.81876 c -0.26527,-1.358476 -0.48603,-0.390688 -0.49057,2.150639 -0.005,2.541326 0.21238,3.652804 0.48227,2.469954 0.26982,-1.182849 0.27356,-3.262114 0.008,-4.620593 l -4.7e-4,0 z m 1.25568,-9.818759 c -0.26527,-1.358476 -0.48602,-0.390688 -0.49058,2.150638 -0.005,2.541326 0.21237,3.652804 0.48229,2.469955 0.26979,-1.182849 0.27354,-3.262115 0.008,-4.620593 l -4.7e-4,0 z m 1.25403,-9.834025 c -0.26435,-1.350078 -0.48066,-0.245468 -0.48066,2.454691 0,2.700158 0.21631,3.804769 0.48066,2.45469 0.26437,-1.350081 0.26437,-3.559301 0,-4.909381 z"
       id="path4374"
       inkscape:connector-curvature="0" />
    <path
       style="fill:#8dcf8a;fill-opacity:0.88627451;fill-rule:evenodd;stroke:none;stroke-width:0;stroke-linecap:round;stroke-linejoin:bevel;stroke-miterlimit:0;stroke-dasharray:none;stroke-opacity:0.63137255"
       d="m 246.44496,605.28806 0,-162.8759 -114.26607,0 c -62.846352,0 -114.266081,-0.13574 -114.266081,-0.30165 0,-0.37772 19.028009,-23.34309 182.077851,-219.75408 C 373.35897,13.515712 373.22682,13.674398 374.09543,13.304923 c 0.41258,-0.175496 0.40227,1.760184 -0.023,4.301509 -1.6459,9.837349 -3.58323,28.385607 -3.07819,29.47101 0.29186,0.627229 0.96033,-2.543869 1.48555,-7.046884 0.52519,-4.503016 1.38608,-8.921458 1.91309,-9.81876 1.23303,-2.099491 0.92467,-4.0792 9.10225,58.436247 3.69825,28.272235 6.88919,50.494415 7.09099,49.382575 0.20176,-1.11182 -3.04724,-28.61955 -7.22011,-61.128271 -8.40274,-65.461734 -8.08212,-62.353781 -6.34968,-61.556907 0.68048,0.313017 6.66712,7.05764 13.30359,14.988048 22.63587,27.049274 330.25767,397.32988 341.74699,411.35671 0.47039,0.57428 -22.81044,0.72196 -113.80905,0.72196 l -114.4004,0 0,162.8759 0,162.87588 -15.53413,0 -15.53411,0 -0.70082,-2.74346 c -0.38545,-1.50892 -5.96752,-43.93896 -12.40455,-94.28898 -6.43707,-50.35002 -11.8684,-90.50585 -12.06959,-89.23519 -0.2011,1.27065 3.61792,33.49929 8.48698,71.61918 13.46151,105.39047 13.8531,108.548 13.8531,111.70463 l 0,2.94382 -95.59315,0 -95.59314,0 0.8059,-4.47618 c 2.04865,-11.37857 27.19143,-213.79437 26.77791,-215.57953 -0.45226,-1.95245 -0.4755,-1.93995 -0.67935,0.36556 -0.21457,2.42684 -25.79281,202.93203 -27.27042,213.77003 l -0.8071,5.92012 -15.57506,0 -15.57504,0 0,-162.87588 z m 200.57112,-33.06612 c -0.26439,-1.35008 -0.48068,-0.24547 -0.48068,2.45469 0,2.70017 0.21629,3.80478 0.48068,2.45468 0.26435,-1.35006 0.26435,-3.55929 0,-4.90937 z m -1.25568,-9.81875 c -0.26436,-1.35009 -0.48067,-0.24548 -0.48067,2.45468 0,2.70017 0.21631,3.80478 0.48067,2.45468 0.26435,-1.35008 0.26435,-3.55929 0,-4.90936 z m -1.25568,-9.81876 c -0.26437,-1.35009 -0.48065,-0.24548 -0.48065,2.45468 0,2.70017 0.21628,3.80478 0.48065,2.4547 0.26436,-1.3501 0.26436,-3.55931 0,-4.90938 z m -1.25567,-9.81876 c -0.26436,-1.35009 -0.48066,-0.24548 -0.48066,2.45467 0,2.70018 0.2163,3.80479 0.48066,2.45471 0.26436,-1.35009 0.26436,-3.55931 0,-4.90938 z m -135.61086,-4.02776 c -0.26524,-1.35847 -0.48599,-0.39069 -0.49057,2.15064 -0.005,2.54133 0.2124,3.6528 0.48228,2.46995 0.26982,-1.18285 0.27354,-3.26212 0.008,-4.62059 l -5e-4,0 z m 134.35519,-5.79101 c -0.26436,-1.35008 -0.48065,-0.24546 -0.48065,2.45469 0,2.70017 0.21629,3.80478 0.48065,2.4547 0.26437,-1.35009 0.26437,-3.55931 0,-4.90939 z m -133.0995,-4.02775 c -0.26527,-1.35848 -0.48603,-0.39069 -0.49057,2.15064 -0.005,2.54133 0.21238,3.65281 0.48225,2.46995 0.26984,-1.18285 0.27358,-3.26211 0.008,-4.62059 l -4.6e-4,0 z m 131.84384,-5.79101 c -0.26438,-1.35007 -0.48069,-0.24546 -0.48069,2.45469 0,2.70017 0.21631,3.80478 0.48069,2.4547 0.26436,-1.35009 0.26436,-3.55931 0,-4.90939 z m -130.58817,-4.02775 c -0.26528,-1.35848 -0.48603,-0.39069 -0.49059,2.15064 -0.005,2.54133 0.21239,3.65281 0.48229,2.46996 0.26981,-1.18286 0.27355,-3.26212 0.008,-4.6206 l -4.8e-4,0 z m 129.3325,-5.791 c -0.26438,-1.35008 -0.48068,-0.24547 -0.48068,2.45468 0,2.70016 0.2163,3.80477 0.48068,2.4547 0.26436,-1.35008 0.26436,-3.55931 0,-4.90938 z m -128.07683,-4.02776 c -0.26525,-1.35848 -0.48602,-0.39068 -0.4906,2.15064 -0.005,2.54133 0.2124,3.6528 0.48229,2.46996 0.26981,-1.18286 0.27354,-3.26212 0.008,-4.6206 l -4.9e-4,0 z M 438.228,504.08347 c -0.26526,-1.35848 -0.48602,-0.3907 -0.49059,2.15064 -0.005,2.54132 0.21238,3.6528 0.48228,2.46995 0.26981,-1.18285 0.27355,-3.26211 0.008,-4.62059 l -4.9e-4,0 z m -125.56712,-4.6206 c -0.26525,-1.35847 -0.48603,-0.39069 -0.49058,2.15064 -0.005,2.54133 0.21239,3.6528 0.48229,2.46996 0.26981,-1.18286 0.27355,-3.26212 0.008,-4.6206 l -5.2e-4,0 z m 124.31144,-5.19816 c -0.26527,-1.35848 -0.48602,-0.39069 -0.49058,2.15064 -0.005,2.54132 0.2124,3.65279 0.48229,2.46996 0.26981,-1.18286 0.27355,-3.26213 0.008,-4.6206 l -4.7e-4,0 z m -123.06206,-4.92465 c -0.27093,-1.19124 -0.49257,-0.21659 -0.49257,2.1659 0,2.3825 0.22164,3.35714 0.49257,2.1659 0.2709,-1.19124 0.2709,-3.14055 0,-4.3318 z m 121.8064,-4.89411 c -0.26527,-1.35849 -0.48602,-0.39069 -0.49058,2.15063 -0.005,2.54133 0.21237,3.65281 0.48229,2.46996 0.26979,-1.18285 0.27354,-3.26212 0.008,-4.62059 l -4.8e-4,0 z M 315.16592,479.5213 c -0.27092,-1.19124 -0.49256,-0.2166 -0.49256,2.1659 0,2.3825 0.22164,3.35714 0.49256,2.1659 0.27089,-1.19125 0.27089,-3.14055 0,-4.3318 z m 119.29506,-4.89411 c -0.26526,-1.35849 -0.48602,-0.39069 -0.49057,2.15063 -0.005,2.54133 0.21239,3.65281 0.48226,2.46996 0.26983,-1.18285 0.27357,-3.26212 0.008,-4.62059 l -4.7e-4,0 z m -118.03941,-4.92465 c -0.27091,-1.19124 -0.49255,-0.2166 -0.49255,2.1659 0,2.3825 0.22164,3.35715 0.49255,2.1659 0.2709,-1.19125 0.2709,-3.14055 0,-4.3318 z m 116.78374,-4.89412 c -0.26526,-1.35848 -0.48601,-0.39068 -0.49057,2.15064 -0.005,2.54133 0.2124,3.6528 0.48226,2.46996 0.26985,-1.18286 0.27354,-3.26212 0.008,-4.6206 l -5.1e-4,0 z m -115.52639,-4.33418 c -0.27182,-1.19834 -0.49876,-0.35942 -0.50435,1.86424 -0.005,2.22365 0.21674,3.20411 0.49422,2.17878 0.2774,-1.02534 0.28195,-2.84469 0.0117,-4.04302 l 9e-5,0 z m 114.27071,-5.48458 c -0.26524,-1.35847 -0.48603,-0.39069 -0.49058,2.15064 -0.005,2.54134 0.21239,3.6528 0.48229,2.46996 0.26981,-1.18285 0.27354,-3.26212 0.008,-4.6206 l -4.9e-4,0 z m -113.03205,-4.34707 c -0.28769,-0.87357 -0.5231,-0.15883 -0.5231,1.58833 0,1.74717 0.23541,2.46191 0.5231,1.58833 0.28772,-0.87357 0.28772,-2.30307 0,-3.17666 z m 111.77639,-5.47168 c -0.26525,-1.35848 -0.48603,-0.3907 -0.49059,2.15063 -0.005,2.54134 0.2124,3.6528 0.48229,2.46996 0.26982,-1.18285 0.27356,-3.26212 0.008,-4.62059 l -5.1e-4,0 z M 320.16005,441.6902 c -0.29929,-0.71475 -0.54417,-0.12995 -0.54417,1.29955 0,1.42948 0.24488,2.01427 0.54417,1.29952 0.2993,-0.71474 0.2993,-1.88432 0,-2.59907 z m 109.27192,-6.06454 c -0.27091,-1.19124 -0.49255,-0.21657 -0.49255,2.16591 0,2.3825 0.22164,3.35715 0.49255,2.16591 0.2709,-1.19125 0.2709,-3.14057 0,-4.33182 z M 321.4306,432.16817 c -0.28862,-0.87795 -0.53248,-0.29673 -0.54193,1.2916 -0.008,1.58832 0.22675,2.30665 0.52479,1.59627 0.29804,-0.71038 0.30576,-2.00993 0.0174,-2.88787 l 7e-5,0 z m 106.74571,-6.36127 c -0.27091,-1.19125 -0.49255,-0.21658 -0.49255,2.16591 0,2.3825 0.22164,3.35715 0.49255,2.16591 0.2709,-1.19126 0.2709,-3.14057 0,-4.33182 z m -105.48106,-4.89903 c -0.27948,-1.0381 -0.51388,-0.32799 -0.52094,1.57798 -0.007,1.90601 0.22159,2.75536 0.50813,1.88746 0.28651,-0.86787 0.29225,-2.42734 0.0132,-3.46544 z m 104.2254,-4.91973 c -0.27091,-1.19124 -0.49257,-0.21658 -0.49257,2.16591 0,2.3825 0.22166,3.35715 0.49257,2.1659 0.2709,-1.19125 0.2709,-3.14056 0,-4.33181 z M 323.94027,412.5227 c -0.28771,-0.87357 -0.52312,-0.15882 -0.52312,1.58834 0,1.74717 0.23541,2.4619 0.52312,1.58832 0.28773,-0.87358 0.28773,-2.30307 0,-3.17666 z m 101.72469,-6.35331 c -0.2709,-1.19124 -0.49254,-0.21659 -0.49254,2.16591 0,2.38249 0.22164,3.35715 0.49254,2.16589 0.27091,-1.19125 0.27091,-3.14055 0,-4.3318 z m -100.48224,-3.75424 c -0.29928,-0.71474 -0.54416,-0.12994 -0.54416,1.29955 0,1.4295 0.24488,2.0143 0.54416,1.29955 0.2993,-0.71475 0.2993,-1.88435 0,-2.5991 z m 99.22658,-6.06452 c -0.2709,-1.19124 -0.49254,-0.2166 -0.49254,2.16591 0,2.38249 0.22164,3.35715 0.49254,2.16589 0.2709,-1.19125 0.2709,-3.14055 0,-4.3318 z m -97.97089,-3.75423 c -0.2993,-0.71474 -0.54418,-0.12996 -0.54418,1.29954 0,1.4295 0.24488,2.0143 0.54418,1.29955 0.29931,-0.71476 0.29931,-1.88434 0,-2.59909 z m 96.71521,-6.06453 c -0.27092,-1.19124 -0.49254,-0.21659 -0.49254,2.16591 0,2.38249 0.22162,3.35714 0.49254,2.16589 0.27089,-1.19125 0.27089,-3.14055 0,-4.3318 z m -95.45954,-3.75423 c -0.29931,-0.71474 -0.54418,-0.12996 -0.54418,1.29953 0,1.42951 0.24487,2.0143 0.54418,1.29956 0.29929,-0.71476 0.29929,-1.88434 0,-2.59909 z m 94.20388,-6.06452 c -0.27091,-1.19125 -0.49256,-0.2166 -0.49256,2.1659 0,2.38249 0.22165,3.35714 0.49256,2.16589 0.2709,-1.19124 0.2709,-3.14055 0,-4.33179 z m -92.94821,-3.75423 c -0.2993,-0.71476 -0.54419,-0.12997 -0.54419,1.29952 0,1.42951 0.24489,2.0143 0.54419,1.29956 0.29928,-0.71476 0.29928,-1.88434 0,-2.59908 z m 91.69421,-5.47409 c -0.27183,-1.19832 -0.4988,-0.35942 -0.50436,1.86424 -0.005,2.22366 0.21674,3.20411 0.49422,2.17879 0.27738,-1.02532 0.28194,-2.84469 0.0117,-4.04303 l 8e-5,0 z m -90.43661,-3.76037 c -0.30036,-0.71845 -0.55753,-0.26664 -0.57145,1.00402 -0.0132,1.27067 0.23181,1.85849 0.54609,1.30628 0.3143,-0.55221 0.3257,-1.59186 0.0254,-2.3103 l -3e-5,0 z m 89.18094,-6.05839 c -0.27183,-1.19832 -0.49879,-0.35942 -0.50437,1.86425 -0.005,2.22365 0.21695,3.2041 0.49423,2.17878 0.2774,-1.02533 0.28195,-2.84469 0.0117,-4.04303 l 1.1e-4,0 z M 331.463,353.90568 c -0.30034,-0.71846 -0.55748,-0.26665 -0.57142,1.00401 -0.0132,1.27067 0.23179,1.85849 0.5461,1.30628 0.31428,-0.55222 0.32567,-1.59186 0.0254,-2.31029 l -10e-6,0 z m 86.66961,-6.0584 c -0.27184,-1.19832 -0.49878,-0.35942 -0.50436,1.86425 -0.005,2.22365 0.21696,3.2041 0.49424,2.17878 0.27739,-1.02533 0.28195,-2.84469 0.0117,-4.04303 l 8e-5,0 z m -85.41586,-4.34467 c -0.29929,-0.71476 -0.54417,-0.12996 -0.54417,1.29954 0,1.42949 0.24488,2.01428 0.54417,1.29953 0.29931,-0.71474 0.29931,-1.88433 0,-2.59907 z m 84.15214,-5.77575 c -0.27853,-1.03241 -0.50645,-0.18772 -0.50645,1.87712 0,2.06483 0.22792,2.90953 0.50645,1.87712 0.27856,-1.03242 0.27856,-2.72183 0,-3.75424 z m -82.89454,-3.45871 c -0.30035,-0.71845 -0.55749,-0.26664 -0.57145,1.00403 -0.0132,1.27065 0.23181,1.85849 0.54611,1.30627 0.31429,-0.55222 0.32568,-1.59184 0.0254,-2.3103 l -2e-5,0 z m 81.64056,-5.77213 c -0.27948,-1.0381 -0.51389,-0.32801 -0.52093,1.57798 -0.007,1.906 0.22161,2.75536 0.50812,1.88746 0.2865,-0.86788 0.29227,-2.42733 0.0132,-3.46544 z m -80.40739,-4.34215 c -0.31586,-0.55591 -0.57426,-0.10108 -0.57426,1.01076 0,1.11183 0.2584,1.56667 0.57426,1.01074 0.31579,-0.55591 0.31579,-1.46557 0,-2.0215 z m 79.12978,-4.32508 c -0.30034,-0.71845 -0.55748,-0.26663 -0.57144,1.00403 -0.0132,1.27066 0.23181,1.85848 0.54612,1.30628 0.31428,-0.55222 0.32567,-1.59185 0.0254,-2.31031 l -2e-5,0 z m -77.85161,-5.19816 c -0.30035,-0.71844 -0.5575,-0.26664 -0.57143,1.00402 -0.0132,1.27066 0.23181,1.85849 0.5461,1.30629 0.31427,-0.55222 0.32567,-1.59185 0.0254,-2.31031 l -4e-5,0 z m 76.60888,-5.48574 c -0.28861,-0.87795 -0.53246,-0.29673 -0.54189,1.29159 -0.008,1.58834 0.22673,2.30666 0.52477,1.59628 0.29804,-0.71037 0.30578,-2.00993 0.0174,-2.88787 l 6e-5,0 z m -75.35321,-4.33302 c -0.30032,-0.71844 -0.55749,-0.26664 -0.57142,1.00402 -0.0132,1.27066 0.23181,1.85849 0.54609,1.30628 0.31428,-0.55221 0.32567,-1.59184 0.0254,-2.3103 l -3e-5,0 z m 74.08269,-5.78247 c -0.29931,-0.71476 -0.54419,-0.12996 -0.54419,1.29954 0,1.42949 0.24488,2.01428 0.54419,1.29955 0.29928,-0.71476 0.29928,-1.88435 0,-2.59909 z m -72.84493,-3.74325 c -0.31838,-0.56195 -0.5998,-0.24201 -0.62538,0.71098 -0.0257,0.953 0.23489,1.41279 0.57885,1.02175 0.34397,-0.39103 0.36488,-1.17077 0.0467,-1.73273 l -6e-5,0 z m 71.56865,-5.78673 c -0.31583,-0.55591 -0.57428,-0.10107 -0.57428,1.01076 0,1.11184 0.25845,1.56667 0.57428,1.01075 0.31582,-0.55591 0.31582,-1.46559 0,-2.02151 z m -70.3254,-3.71814 c -0.40083,-0.46074 -0.69837,-0.32388 -0.75862,0.34897 -0.0545,0.60885 0.24226,0.94999 0.65951,0.75806 0.41723,-0.19191 0.46184,-0.6901 0.099,-1.10703 l 7e-5,0 z m 61.53571,-64.4356 c -0.31587,-0.55591 -0.57428,-0.10108 -0.57428,1.01075 0,1.11184 0.25841,1.56667 0.57428,1.01076 0.31582,-0.55592 0.31582,-1.46559 0,-2.02151 z m -1.23508,-9.52997 c -0.29928,-0.71475 -0.54417,-0.12996 -0.54417,1.29953 0,1.42951 0.24489,2.0143 0.54417,1.29956 0.29928,-0.71476 0.29928,-1.88435 0,-2.59909 z m -1.24079,-10.09961 c -0.28862,-0.87795 -0.53248,-0.29672 -0.54191,1.2916 -0.008,1.58834 0.22672,2.30666 0.52477,1.59628 0.29803,-0.71039 0.30577,-2.00993 0.0174,-2.88788 l 7e-5,0 z m -1.24838,-9.5379 c -0.27854,-1.03242 -0.50644,-0.18772 -0.50644,1.8771 0,2.06483 0.2279,2.90954 0.50644,1.87712 0.27853,-1.03241 0.27853,-2.72182 0,-3.75422 z m -1.24762,-10.09468 c -0.27184,-1.19832 -0.49878,-0.35942 -0.50436,1.86424 -0.005,2.22366 0.21696,3.20412 0.49424,2.17878 0.27737,-1.02532 0.28193,-2.84468 0.0117,-4.04302 l 8e-5,0 z m -42.75145,-2.57586 c -0.40084,-0.46074 -0.69838,-0.32389 -0.75862,0.34896 -0.0545,0.60885 0.24225,0.94998 0.65948,0.75807 0.41726,-0.19193 0.46186,-0.69009 0.0991,-1.10703 l 5e-5,0 z m 41.4941,-7.25578 c -0.27092,-1.19125 -0.49254,-0.21659 -0.49254,2.1659 0,2.3825 0.22162,3.35715 0.49254,2.16592 0.2709,-1.19125 0.2709,-3.14056 0,-4.33182 z m -40.23841,-4.87328 c -0.40086,-0.46075 -0.6984,-0.32388 -0.75866,0.34896 -0.0545,0.60886 0.24225,0.94998 0.65951,0.75806 0.41724,-0.19192 0.46186,-0.69009 0.099,-1.10702 l 7e-5,0 z m 38.98274,-4.94548 c -0.27092,-1.19125 -0.49256,-0.21659 -0.49256,2.1659 0,2.3825 0.22164,3.35716 0.49256,2.16592 0.2709,-1.19125 0.2709,-3.14056 0,-4.33182 z m -37.72709,-2.56298 c -0.40083,-0.46075 -0.69838,-0.32389 -0.75862,0.34896 -0.0545,0.60885 0.24226,0.94998 0.6595,0.75807 0.41726,-0.19193 0.46184,-0.6901 0.099,-1.10703 l 4e-5,0 z m 36.47775,-6.95171 c -0.26528,-1.35848 -0.48603,-0.3907 -0.49059,2.15062 -0.005,2.54133 0.21239,3.65281 0.48225,2.46996 0.26985,-1.18285 0.27359,-3.26212 0.008,-4.62058 l -4.8e-4,0 z m -1.2557,-9.81876 c -0.26525,-1.35849 -0.486,-0.3907 -0.49057,2.15062 -0.005,2.54133 0.2124,3.65281 0.48228,2.46995 0.26983,-1.18284 0.27354,-3.2621 0.008,-4.62057 l -4.9e-4,0 z m -31.44723,-13.58828 c -0.31582,-0.5559 -0.57425,-0.10106 -0.57425,1.01077 0,1.11183 0.25843,1.56667 0.57425,1.01075 0.31582,-0.55592 0.31582,-1.46559 0,-2.02152 z m 1.27819,-10.1008 c -0.30033,-0.71845 -0.5575,-0.26664 -0.57143,1.00402 -0.0132,1.27067 0.2318,1.85849 0.54609,1.30628 0.31428,-0.55221 0.32568,-1.59186 0.0254,-2.3103 l -4e-5,0 z m 1.25376,-9.82549 c -0.29931,-0.71475 -0.54418,-0.12997 -0.54418,1.29953 0,1.4295 0.24487,2.0143 0.54418,1.29955 0.29929,-0.71475 0.29929,-1.88434 0,-2.59908 z m 1.25566,-9.818753 c -0.29929,-0.714749 -0.54418,-0.129956 -0.54418,1.299533 0,1.4295 0.24489,2.0143 0.54418,1.29955 0.29932,-0.71475 0.29932,-1.88434 0,-2.599083 z m 1.25568,-9.81876 c -0.2993,-0.714749 -0.54416,-0.129955 -0.54416,1.299542 0,1.429495 0.24486,2.014289 0.54416,1.299541 0.29929,-0.714748 0.29929,-1.884335 0,-2.599083 z m 1.25566,-9.241185 c -0.29927,-0.714748 -0.54417,-0.129955 -0.54417,1.29954 0,1.429497 0.2449,2.01429 0.54417,1.299542 0.29929,-0.714747 0.29929,-1.884335 0,-2.599082 z m 1.25567,-9.81876 c -0.29929,-0.714748 -0.54415,-0.129955 -0.54415,1.299542 0,1.429495 0.24486,2.014289 0.54415,1.299542 0.29931,-0.714749 0.29931,-1.884337 0,-2.599084 z m 1.27952,-10.963564 c -0.27945,-1.038103 -0.51388,-0.328009 -0.52091,1.577985 -0.007,1.905994 0.2216,2.75535 0.50812,1.887459 0.28651,-0.867891 0.29228,-2.42734 0.0132,-3.465444 z m 1.26669,-9.236262 c -0.26526,-1.358477 -0.48601,-0.39069 -0.49057,2.150636 -0.005,2.541326 0.2124,3.652805 0.48227,2.469956 0.26984,-1.182849 0.27355,-3.262116 0.008,-4.620592 l -5e-4,0 z"
       id="path4376"
       inkscape:connector-curvature="0" />
    <path
       style="fill:#8dcf8a;fill-opacity:0.88627451;fill-rule:evenodd;stroke:none;stroke-width:0;stroke-linecap:round;stroke-linejoin:bevel;stroke-miterlimit:0;stroke-dasharray:none;stroke-opacity:0.63137255"
       d="m 246.44496,605.28806 0,-162.8759 -114.26607,0 c -62.846352,0 -114.266081,-0.16654 -114.266081,-0.3701 0,-0.20354 6.266853,-7.93582 13.92633,-17.18282 C 52.456128,399.96911 258.68225,151.46787 271.54996,136.0091 c 6.08171,-7.3063 31.23666,-37.585614 55.89985,-67.287361 24.66322,-29.701748 45.37966,-54.393041 46.03657,-54.869538 0.78377,-0.568528 0.96558,0.722081 0.52887,3.754231 -0.36601,2.541326 -0.93215,8.25931 -1.25806,12.70663 -0.45997,6.276086 -0.36136,7.077612 0.44053,3.580846 0.56825,-2.477855 1.3246,-4.639238 1.68079,-4.803071 0.70839,-0.325836 1.04837,1.76534 5.26922,32.411226 1.57508,11.435966 2.92891,19.493125 3.00849,17.904797 0.0796,-1.58833 -1.54499,-15.883288 -3.61013,-31.766575 -4.27399,-32.871515 -4.29159,-33.10526 -2.43049,-32.24921 0.73507,0.338117 8.69665,9.421912 17.69237,20.186215 43.00983,51.465607 337.5817,406.25664 337.5817,406.59335 0,0.13284 -51.41973,0.24152 -114.26607,0.24152 l -114.26605,0 0,162.8759 0,162.87588 -15.53415,0 -15.53412,0 -0.72008,-2.74346 c -0.39603,-1.50892 -2.58778,-17.4283 -4.87051,-35.37642 -2.28276,-17.94811 -4.31921,-31.70956 -4.5254,-30.58105 -0.20631,1.12852 1.34767,15.58104 3.45308,32.11671 2.10542,16.5356 3.82805,31.53167 3.82805,33.32452 l 0,3.2597 -95.60369,0 -95.60369,0 0.80084,-4.76497 c 2.1187,-12.60607 15.91897,-124.61266 15.60237,-126.63312 -0.19913,-1.27067 -3.92418,25.75981 -8.27802,60.0677 -4.35383,34.3079 -8.24918,64.3923 -8.6563,66.85421 l -0.74027,4.47618 -15.51535,0 -15.51535,0 0,-162.87588 z m 215.63916,84.75899 c -0.26438,-1.35006 -0.48066,-0.24546 -0.48066,2.4547 0,2.70014 0.21628,3.80476 0.48066,2.45468 0.26437,-1.35007 0.26437,-3.55929 0,-4.90938 z m -1.25565,-9.81876 c -0.26439,-1.35006 -0.4807,-0.24546 -0.4807,2.4547 0,2.70016 0.21631,3.80477 0.4807,2.45468 0.26434,-1.35007 0.26434,-3.55929 0,-4.90938 z m -1.25569,-9.81876 c -0.26438,-1.35008 -0.48067,-0.24546 -0.48067,2.4547 0,2.70016 0.21629,3.80477 0.48067,2.45468 0.26436,-1.35008 0.26436,-3.55929 0,-4.90938 z m -1.25567,-9.81875 c -0.26437,-1.35009 -0.48066,-0.24547 -0.48066,2.45469 0,2.70016 0.21629,3.80477 0.48066,2.4547 0.26435,-1.3501 0.26435,-3.55931 0,-4.90939 z m -1.25568,-9.81876 c -0.26435,-1.35009 -0.48066,-0.24548 -0.48066,2.45468 0,2.70017 0.21631,3.80478 0.48066,2.45471 0.26437,-1.3501 0.26437,-3.55931 0,-4.90939 z m -1.25404,-9.22594 c -0.26526,-1.35845 -0.48601,-0.39067 -0.49057,2.15065 -0.005,2.54134 0.21238,3.65282 0.48225,2.46994 0.26983,-1.18281 0.27358,-3.26208 0.008,-4.62059 l -4.7e-4,0 z m -1.25568,-9.81876 c -0.26526,-1.35845 -0.48601,-0.39067 -0.49057,2.15066 -0.005,2.54133 0.2124,3.65281 0.48227,2.46993 0.26984,-1.18281 0.27355,-3.26208 0.008,-4.62059 l -4.9e-4,0 z m -158.21616,-4.63584 c -0.26437,-1.35008 -0.48067,-0.24547 -0.48067,2.45469 0,2.70016 0.2163,3.80477 0.48067,2.45468 0.26434,-1.35006 0.26434,-3.55929 0,-4.90937 z m 156.95417,-5.48696 c -0.27089,-1.19124 -0.49252,-0.2166 -0.49252,2.16591 0,2.38249 0.22163,3.35715 0.49252,2.1659 0.27093,-1.19125 0.27093,-3.14056 0,-4.33181 z m -155.69851,-4.33179 c -0.26437,-1.35009 -0.48067,-0.24548 -0.48067,2.45468 0,2.70016 0.2163,3.80477 0.48067,2.45468 0.26434,-1.35007 0.26434,-3.55929 0,-4.90936 z m 154.44284,-5.48697 c -0.2709,-1.19124 -0.49254,-0.21658 -0.49254,2.16592 0,2.38248 0.22164,3.35714 0.49254,2.16589 0.2709,-1.19125 0.2709,-3.14056 0,-4.33181 z M 298.8469,607.45397 c -0.26438,-1.35009 -0.48069,-0.24548 -0.48069,2.45468 0,2.70016 0.21631,3.80477 0.48069,2.45469 0.26435,-1.35009 0.26435,-3.5593 0,-4.90937 z m 151.93317,-4.89651 c -0.27184,-1.19835 -0.49877,-0.35943 -0.50437,1.86425 -0.005,2.22365 0.21673,3.20407 0.49421,2.17877 0.2774,-1.02531 0.28196,-2.84467 0.0117,-4.04302 l 8e-5,0 z m -150.6759,-4.907 c -0.26525,-1.35846 -0.486,-0.39069 -0.49056,2.15064 -0.005,2.54133 0.21239,3.65281 0.48225,2.46994 0.26985,-1.18282 0.27356,-3.26208 0.008,-4.62058 l -4.9e-4,0 z m 149.42022,-4.91176 c -0.27183,-1.19834 -0.49879,-0.35943 -0.50435,1.86424 -0.005,2.22366 0.21674,3.20408 0.49422,2.17879 0.27737,-1.02531 0.28193,-2.84467 0.0117,-4.04303 l 8e-5,0 z m -148.16454,-4.90699 c -0.26527,-1.35848 -0.48602,-0.39069 -0.49058,2.15063 -0.005,2.54133 0.2124,3.65281 0.48227,2.46994 0.26983,-1.18282 0.27356,-3.26209 0.008,-4.62057 l -4.8e-4,0 z m 146.89185,-4.34708 c -0.28771,-0.87357 -0.52309,-0.15882 -0.52309,1.58834 0,1.74716 0.23538,2.4619 0.52309,1.58832 0.28773,-0.87358 0.28773,-2.30308 0,-3.17666 z m -145.63617,-5.47168 c -0.26527,-1.35848 -0.48603,-0.39069 -0.49058,2.15063 -0.005,2.54134 0.21238,3.6528 0.48227,2.46996 0.26982,-1.18284 0.27355,-3.26211 0.008,-4.62059 l -4.6e-4,0 z m 144.3805,-4.92464 c -0.2877,-0.87359 -0.52309,-0.15884 -0.52309,1.58832 0,1.74715 0.23539,2.46191 0.52309,1.58834 0.2877,-0.87359 0.2877,-2.30309 0,-3.17666 z M 303.86655,568.4806 c -0.27184,-1.19834 -0.49877,-0.35943 -0.50435,1.86423 -0.005,2.22366 0.21672,3.20412 0.4942,2.17877 0.2774,-1.02532 0.28196,-2.84468 0.0117,-4.043 l 8e-5,0 z m 141.87381,-5.21105 c -0.28769,-0.87359 -0.52311,-0.15884 -0.52311,1.58832 0,1.74715 0.23542,2.46191 0.52311,1.58834 0.28771,-0.87359 0.28771,-2.30309 0,-3.17666 z m -140.61982,-5.19818 c -0.2709,-1.19124 -0.49254,-0.21659 -0.49254,2.16591 0,2.38249 0.22164,3.35715 0.49254,2.16591 0.27088,-1.19126 0.27088,-3.14057 0,-4.33182 z m 139.36416,-4.62058 c -0.28772,-0.87359 -0.52312,-0.15884 -0.52312,1.58832 0,1.74715 0.2354,2.46191 0.52312,1.58833 0.2877,-0.87358 0.2877,-2.30308 0,-3.17665 z m -138.11317,-4.32147 c -0.27946,-1.0381 -0.5139,-0.32801 -0.52094,1.57799 -0.007,1.90599 0.2216,2.75536 0.50811,1.88746 0.28652,-0.86789 0.29229,-2.42735 0.0132,-3.46545 z M 443.229,543.63203 c -0.28767,-0.87359 -0.52309,-0.15884 -0.52309,1.58831 0,1.74718 0.23542,2.46192 0.52309,1.58834 0.28773,-0.87358 0.28773,-2.30308 0,-3.17665 z m -135.61079,-4.03508 c -0.28861,-0.87795 -0.53248,-0.29673 -0.5419,1.2916 -0.008,1.58832 0.22672,2.30665 0.52476,1.59626 0.29805,-0.71038 0.30578,-2.00992 0.0174,-2.88786 l 6e-5,0 z m 134.35514,-5.78369 c -0.2877,-0.87357 -0.52311,-0.15883 -0.52311,1.58833 0,1.74717 0.23541,2.46192 0.52311,1.58833 0.28772,-0.87357 0.28772,-2.30307 0,-3.17666 z m -133.09947,-4.03507 c -0.28862,-0.87794 -0.53247,-0.29674 -0.5419,1.2916 -0.008,1.58832 0.22673,2.30665 0.52477,1.59626 0.29804,-0.71038 0.30578,-2.00991 0.0174,-2.88786 l 6e-5,0 z m 131.84379,-5.78369 c -0.2877,-0.87357 -0.52309,-0.15882 -0.52309,1.58833 0,1.74717 0.23539,2.46192 0.52309,1.58833 0.28771,-0.87357 0.28771,-2.30306 0,-3.17666 z m -130.58812,-4.03507 c -0.28862,-0.87795 -0.53248,-0.29673 -0.5419,1.2916 -0.008,1.58833 0.22672,2.30665 0.52476,1.59626 0.29804,-0.71038 0.30578,-2.0099 0.0174,-2.88786 l 6e-5,0 z m 129.33414,-5.19817 c -0.28862,-0.87794 -0.53249,-0.29672 -0.54193,1.29161 -0.008,1.58833 0.22672,2.30664 0.52478,1.59626 0.29805,-0.71038 0.30576,-2.00993 0.0174,-2.88787 l 7e-5,0 z M 311.37035,510.4215 c -0.29929,-0.71474 -0.54417,-0.12994 -0.54417,1.29956 0,1.4295 0.24488,2.0143 0.54417,1.29954 0.29928,-0.71474 0.29928,-1.88434 0,-2.5991 z m 126.83766,-5.47899 c -0.28862,-0.87794 -0.5325,-0.29673 -0.54193,1.2916 -0.008,1.58833 0.22673,2.30664 0.52477,1.59626 0.29808,-0.71038 0.30578,-2.00992 0.0174,-2.88786 l 6e-5,0 z m -125.5671,-4.62061 c -0.28861,-0.87794 -0.53251,-0.29672 -0.54193,1.29161 -0.008,1.58833 0.22673,2.30666 0.52476,1.59627 0.29806,-0.71038 0.30579,-2.00992 0.0174,-2.88788 l 6e-5,0 z m 124.3114,-5.19815 c -0.28861,-0.87794 -0.53246,-0.29673 -0.54189,1.2916 -0.008,1.58832 0.22672,2.30664 0.52477,1.59626 0.29804,-0.71039 0.30577,-2.00992 0.0174,-2.88786 l 4e-5,0 z M 313.8817,490.20642 c -0.29931,-0.71474 -0.54419,-0.12996 -0.54419,1.29954 0,1.4295 0.24488,2.01428 0.54419,1.29955 0.2993,-0.71475 0.2993,-1.88433 0,-2.59909 z m 121.81495,-4.90143 c -0.28862,-0.87794 -0.53246,-0.29674 -0.54189,1.29159 -0.008,1.58833 0.22672,2.30665 0.52477,1.59627 0.29802,-0.71038 0.30576,-2.00991 0.0174,-2.88786 l 7e-5,0 z m -120.55929,-4.91733 c -0.2993,-0.71475 -0.54418,-0.12995 -0.54418,1.29954 0,1.4295 0.24488,2.01429 0.54418,1.29955 0.29931,-0.71476 0.29931,-1.88433 0,-2.59909 z M 434.441,475.48623 c -0.28862,-0.87796 -0.53249,-0.29673 -0.54192,1.29159 -0.008,1.58834 0.22673,2.30666 0.52477,1.59628 0.29804,-0.71039 0.30578,-2.00992 0.0174,-2.88787 l 7e-5,0 z m -118.06856,-4.62855 c -0.31584,-0.55591 -0.57426,-0.10106 -0.57426,1.01076 0,1.11183 0.25842,1.56668 0.57426,1.01076 0.31583,-0.55592 0.31583,-1.4656 0,-2.02152 z m 116.81287,-5.19021 c -0.28861,-0.87796 -0.53246,-0.29674 -0.5419,1.29159 -0.008,1.58833 0.22672,2.30666 0.52478,1.59627 0.29804,-0.71038 0.30574,-2.00991 0.0174,-2.88786 l 7e-5,0 z m -115.53468,-4.33302 c -0.30034,-0.71845 -0.5575,-0.26665 -0.57143,1.00403 -0.0132,1.27066 0.23181,1.85847 0.54609,1.30627 0.31428,-0.55222 0.32568,-1.59185 0.0254,-2.3103 l -2e-5,0 z m 114.27903,-5.48575 c -0.28862,-0.87795 -0.53248,-0.29673 -0.54193,1.2916 -0.008,1.58833 0.22673,2.30667 0.52476,1.59627 0.29806,-0.71038 0.30578,-2.00991 0.0174,-2.88787 l 7e-5,0 z m -113.07985,-4.33974 c -0.34834,-0.39708 -0.63336,-0.0723 -0.63336,0.72196 0,0.79416 0.28502,1.11905 0.63336,0.72198 0.34835,-0.39709 0.34835,-1.04685 0,-1.44394 z M 430.674,446.02993 c -0.28862,-0.87794 -0.53251,-0.29672 -0.54193,1.29161 -0.008,1.58833 0.22672,2.30666 0.52476,1.59628 0.29806,-0.71039 0.30578,-2.00992 0.0174,-2.88789 l 6e-5,0 z m -110.56852,-3.76216 c -0.34833,-0.39708 -0.63335,-0.0723 -0.63335,0.72198 0,0.79415 0.28502,1.11903 0.63335,0.72195 0.34834,-0.39708 0.34834,-1.04684 0,-1.44393 z m 109.29794,-5.77573 c -0.29927,-0.71475 -0.54416,-0.12997 -0.54416,1.29953 0,1.4295 0.24489,2.01429 0.54416,1.29954 0.2993,-0.71474 0.2993,-1.88432 0,-2.59907 z m -108.04227,-4.04303 c -0.34833,-0.39708 -0.63332,-0.0723 -0.63332,0.72197 0,0.79417 0.28499,1.11904 0.63332,0.72197 0.34833,-0.39709 0.34833,-1.04685 0,-1.44394 z m 106.7866,-5.77574 c -0.29928,-0.71475 -0.54419,-0.12996 -0.54419,1.29954 0,1.4295 0.24491,2.01429 0.54419,1.29954 0.29931,-0.71474 0.29931,-1.88432 0,-2.59908 z m -105.49696,-4.90938 c -0.31584,-0.55591 -0.57425,-0.10108 -0.57425,1.01076 0,1.11182 0.25841,1.56666 0.57425,1.01076 0.31583,-0.55592 0.31583,-1.4656 0,-2.02152 z m 104.24129,-4.90938 c -0.29931,-0.71475 -0.54417,-0.12995 -0.54417,1.29954 0,1.42949 0.24486,2.01429 0.54417,1.29955 0.2993,-0.71475 0.2993,-1.88434 0,-2.59909 z m -102.98101,-3.74323 c -0.31837,-0.56197 -0.5998,-0.24202 -0.62538,0.71096 -0.0257,0.95301 0.23488,1.41279 0.57885,1.02175 0.34394,-0.39103 0.36488,-1.17076 0.0467,-1.73271 l -4e-5,0 z m 101.72536,-6.07553 c -0.29931,-0.71475 -0.54418,-0.12995 -0.54418,1.29955 0,1.42949 0.24487,2.01428 0.54418,1.29954 0.29929,-0.71475 0.29929,-1.88434 0,-2.59909 z m -100.50826,-4.04302 c -0.34834,-0.39708 -0.63334,-0.0723 -0.63334,0.72197 0,0.79417 0.285,1.11906 0.63334,0.72198 0.34834,-0.39709 0.34834,-1.04687 0,-1.44395 z m 99.25257,-5.77574 c -0.29928,-0.71475 -0.54416,-0.12995 -0.54416,1.29955 0,1.4295 0.24488,2.01429 0.54416,1.29954 0.29932,-0.71475 0.29932,-1.88434 0,-2.59909 z m -97.99691,-4.04302 c -0.34833,-0.39708 -0.63335,-0.0723 -0.63335,0.72197 0,0.79417 0.28502,1.11906 0.63335,0.72198 0.34834,-0.39709 0.34834,-1.04687 0,-1.44395 z m 96.74123,-5.77574 c -0.29927,-0.71475 -0.54415,-0.12995 -0.54415,1.29955 0,1.4295 0.24488,2.01429 0.54415,1.29953 0.29931,-0.71474 0.29931,-1.88433 0,-2.59908 z m -95.48556,-4.04302 c -0.34834,-0.39707 -0.63336,-0.0723 -0.63336,0.72196 0,0.79417 0.28502,1.11907 0.63336,0.72198 0.34833,-0.39708 0.34833,-1.04686 0,-1.44394 z m 94.2299,-5.77574 c -0.29928,-0.71474 -0.54416,-0.12994 -0.54416,1.29955 0,1.4295 0.24488,2.01428 0.54416,1.29953 0.29931,-0.71474 0.29931,-1.88433 0,-2.59908 z m -92.97421,-4.04301 c -0.34833,-0.39708 -0.63335,-0.0723 -0.63335,0.72195 0,0.79417 0.28502,1.11907 0.63335,0.72198 0.34832,-0.39708 0.34832,-1.04686 0,-1.44393 z m 91.72045,-5.19144 c -0.30034,-0.71845 -0.55748,-0.26665 -0.5714,1.00402 -0.0132,1.27067 0.23178,1.85849 0.54609,1.30628 0.31425,-0.55221 0.32566,-1.59184 0.0254,-2.3103 l -5e-5,0 z m -90.43863,-4.01365 c -0.40083,-0.46075 -0.69837,-0.3239 -0.75861,0.34895 -0.0545,0.60886 0.24222,0.94998 0.65948,0.75807 0.41726,-0.19192 0.46187,-0.69008 0.0991,-1.10702 l 5e-5,0 z m 89.18295,-5.80511 c -0.30032,-0.71845 -0.55748,-0.26664 -0.57142,1.00403 -0.0132,1.27066 0.23183,1.85848 0.54609,1.30626 0.31428,-0.5522 0.32568,-1.59183 0.0254,-2.31029 l -10e-6,0 z m -87.92729,-4.01364 c -0.40082,-0.46076 -0.69836,-0.32391 -0.75862,0.34894 -0.0545,0.60886 0.24224,0.94999 0.65951,0.75807 0.41724,-0.19192 0.46184,-0.69009 0.099,-1.10701 l 4e-5,0 z m 86.67163,-5.80512 c -0.30034,-0.71845 -0.55748,-0.26664 -0.57144,1.00403 -0.0132,1.27066 0.23181,1.85848 0.5461,1.30626 0.31429,-0.5522 0.32569,-1.59183 0.0254,-2.31029 l -10e-6,0 z m -85.44211,-4.62732 c -0.34834,-0.39709 -0.63335,-0.0723 -0.63335,0.72197 0,0.79416 0.28501,1.11904 0.63335,0.72195 0.34834,-0.39708 0.34834,-1.04684 0,-1.44392 z m 84.16393,-5.48695 c -0.31583,-0.55592 -0.57426,-0.10108 -0.57426,1.01075 0,1.11182 0.25843,1.56667 0.57426,1.01075 0.31583,-0.55591 0.31583,-1.4656 0,-2.0215 z m -82.8821,-3.71813 c -0.40084,-0.46075 -0.69837,-0.32391 -0.75863,0.34894 -0.0545,0.60886 0.24225,0.94999 0.6595,0.75807 0.41725,-0.19192 0.46185,-0.69009 0.0991,-1.10701 l 6e-5,0 z m 81.63103,-5.51207 c -0.31836,-0.56196 -0.59979,-0.24203 -0.62537,0.71097 -0.0257,0.95301 0.23489,1.41279 0.57884,1.02175 0.34394,-0.39103 0.36488,-1.17076 0.0468,-1.73272 l -5e-5,0 z m -2.52374,-19.32362 c -0.40083,-0.46076 -0.69839,-0.32389 -0.75865,0.34894 -0.0545,0.60886 0.24227,0.94999 0.65952,0.75808 0.41724,-0.19193 0.46183,-0.69009 0.099,-1.10702 l 5e-5,0 z m -1.25567,-9.81876 c -0.40086,-0.46075 -0.69839,-0.32389 -0.75864,0.34894 -0.0545,0.60886 0.24226,0.94999 0.6595,0.75807 0.41726,-0.19192 0.46185,-0.69008 0.099,-1.10701 l 7e-5,0 z m -11.3272,-87.82737 c -0.34833,-0.39708 -0.63335,-0.0723 -0.63335,0.72196 0,0.79417 0.28502,1.11907 0.63335,0.72198 0.34834,-0.39708 0.34834,-1.04686 0,-1.44394 z m -1.25567,-9.81876 c -0.34834,-0.39707 -0.63336,-0.0723 -0.63336,0.72197 0,0.79417 0.28502,1.11906 0.63336,0.72197 0.34835,-0.39708 0.34835,-1.04686 0,-1.44394 z m -1.22173,-9.52998 c -0.31582,-0.5559 -0.57424,-0.10107 -0.57424,1.01076 0,1.11184 0.25842,1.56667 0.57424,1.01077 0.31583,-0.55593 0.31583,-1.4656 0,-2.02153 z m -1.23314,-10.1008 c -0.30034,-0.71845 -0.55748,-0.26664 -0.57144,1.00402 -0.0132,1.27066 0.23181,1.85849 0.54609,1.30628 0.3143,-0.55222 0.3257,-1.59185 0.0254,-2.3103 l -3e-5,0 z m -1.2576,-9.82549 c -0.29928,-0.71475 -0.54416,-0.12996 -0.54416,1.29953 0,1.4295 0.24488,2.0143 0.54416,1.29956 0.2993,-0.71476 0.2993,-1.88435 0,-2.59909 z m -1.25568,-9.81875 c -0.29927,-0.71476 -0.54414,-0.12997 -0.54414,1.29952 0,1.4295 0.24487,2.0143 0.54414,1.29954 0.29931,-0.71474 0.29931,-1.88433 0,-2.59906 z m -1.24078,-9.52204 c -0.28862,-0.87795 -0.53248,-0.29672 -0.5419,1.29159 -0.008,1.58834 0.22673,2.30666 0.52476,1.59628 0.29805,-0.71039 0.30579,-2.00993 0.0174,-2.88787 l 6e-5,0 z m -1.25567,-9.81875 c -0.28861,-0.87795 -0.53248,-0.29674 -0.54189,1.29158 -0.008,1.58834 0.22673,2.30666 0.52475,1.59628 0.29805,-0.71039 0.30577,-2.00993 0.0174,-2.88786 l 7e-5,0 z m -1.25566,-10.39635 c -0.28862,-0.87795 -0.53248,-0.29674 -0.54193,1.2916 -0.008,1.58832 0.22673,2.30666 0.52479,1.59627 0.29804,-0.71038 0.30576,-2.00992 0.0174,-2.88787 l 6e-5,0 z m -1.24034,-9.81382 c -0.27183,-1.19833 -0.49877,-0.35943 -0.50436,1.86424 -0.005,2.22365 0.21696,3.20411 0.49424,2.17879 0.2774,-1.02534 0.28195,-2.8447 0.0117,-4.04303 l 8e-5,0 z m -1.25566,-9.81876 c -0.27184,-1.19831 -0.49877,-0.35943 -0.50435,1.86424 -0.005,2.22365 0.21672,3.20412 0.4942,2.17879 0.2774,-1.02534 0.28195,-2.8447 0.0117,-4.04303 l 9e-5,0 z m -25.17205,-3.15344 c -0.40086,-0.46075 -0.69839,-0.32389 -0.75863,0.34895 -0.0545,0.60885 0.24225,0.94999 0.65949,0.75806 0.41727,-0.19191 0.46185,-0.69007 0.099,-1.10701 l 7e-5,0 z m 23.91471,-6.67819 c -0.27091,-1.19124 -0.49257,-0.21659 -0.49257,2.1659 0,2.38248 0.22166,3.35714 0.49257,2.16591 0.2709,-1.19125 0.2709,-3.14057 0,-4.33181 z m -22.65903,-3.14056 c -0.40084,-0.46075 -0.69839,-0.32389 -0.75865,0.34896 -0.0545,0.60885 0.24229,0.94998 0.65952,0.75805 0.41724,-0.19191 0.46186,-0.69007 0.099,-1.10701 l 4e-5,0 z m 21.40967,-6.374145 c -0.26527,-1.358478 -0.48602,-0.390689 -0.49058,2.150637 -0.005,2.541326 0.2124,3.652808 0.48227,2.469955 0.26984,-1.182848 0.27356,-3.262115 0.008,-4.620592 l -4.8e-4,0 z m -20.18015,-4.058284 c -0.34834,-0.397082 -0.63336,-0.0722 -0.63336,0.721968 0,0.794164 0.28502,1.119049 0.63336,0.721966 0.34833,-0.397081 0.34833,-1.046852 0,-1.443934 z m 18.92447,-5.760475 c -0.26525,-1.358479 -0.486,-0.390689 -0.49056,2.150637 -0.005,2.541326 0.2124,3.652803 0.48227,2.469954 0.26983,-1.182847 0.27353,-3.262114 0.008,-4.620591 l -5.1e-4,0 z m -17.66881,-3.480711 c -0.34834,-0.397083 -0.63335,-0.07221 -0.63335,0.721967 0,0.794165 0.28501,1.119051 0.63335,0.721969 0.34834,-0.397082 0.34834,-1.046853 0,-1.443936 z m 1.25565,-9.818759 c -0.34834,-0.397083 -0.63334,-0.07221 -0.63334,0.721968 0,0.794163 0.285,1.11905 0.63334,0.721967 0.34835,-0.397082 0.34835,-1.046853 0,-1.443935 z m 1.29424,-10.674129 c -0.31836,-0.561961 -0.59976,-0.242022 -0.62537,0.710976 -0.0257,0.952997 0.23489,1.412782 0.57887,1.021747 0.34394,-0.391036 0.36488,-1.170762 0.0468,-1.732723 l -7e-5,0 z m 1.28656,-9.244237 c -0.28861,-0.877948 -0.53248,-0.296727 -0.54192,1.291602 -0.008,1.588328 0.22674,2.30665 0.52478,1.59627 0.29805,-0.71038 0.30576,-2.009922 0.0174,-2.887872 l 7e-5,0 z m 1.27101,-10.391392 c -0.27181,-1.198331 -0.49879,-0.359426 -0.50434,1.864234 -0.005,2.22366 0.21673,3.204114 0.49421,2.178785 0.27739,-1.025328 0.28195,-2.844687 0.0117,-4.043019 l 9e-5,0 z"
       id="path4378"
       inkscape:connector-curvature="0" />
    <path
       style="fill:#8dcf8a;fill-opacity:0.88627451;fill-rule:evenodd;stroke:none;stroke-width:0;stroke-linecap:round;stroke-linejoin:bevel;stroke-miterlimit:0;stroke-dasharray:none;stroke-opacity:0.63137255"
       d="m 246.44496,605.28806 0,-162.8759 -114.26607,0 c -62.846352,0 -114.265967,-0.19493 -114.265835,-0.43318 2.96e-4,-0.52887 -9.7938043,11.30803 135.842065,-164.17543 C 330.83305,64.434032 369.36331,18.130972 372.0906,15.422545 l 2.45372,-2.436706 -0.65295,6.064528 c -1.68865,15.684368 -1.76583,17.181178 -0.70594,13.695065 1.13199,-3.723348 2.54018,-4.969789 2.69362,-2.38424 0.29798,5.020632 3.33583,21.987152 3.45576,19.300602 0.078,-1.747162 -0.67449,-9.024595 -1.67222,-16.172074 -2.24021,-16.048193 -2.32835,-18.91801 -0.55594,-18.102756 0.73016,0.335856 5.57317,5.650982 10.76224,11.811391 25.05872,29.749448 344.52078,414.490345 344.52078,414.920115 0,0.16153 -51.41973,0.29369 -114.26607,0.29369 l -114.26605,0 0,162.8759 0,162.87588 -15.69593,0 c -8.63272,0 -15.74088,-0.19491 -15.79585,-0.43318 -0.0549,-0.23824 -0.85213,-5.11151 -1.77145,-10.8295 l -1.67146,-10.39634 0.68278,10.82952 0.68275,10.8295 -95.5258,0 -95.52577,0 -0.48066,-2.45467 -0.48069,-2.4547 -0.21936,2.4547 -0.21939,2.45467 -15.69588,0 -15.69588,0 0,-162.87588 z m 33.56849,150.04012 c -0.26527,-1.35845 -0.48602,-0.39068 -0.49058,2.15066 -0.005,2.54131 0.2124,3.6528 0.48226,2.46993 0.26984,-1.18282 0.27354,-3.26207 0.008,-4.62059 l -4.8e-4,0 z m 1.25404,-9.83401 c -0.26436,-1.35008 -0.48067,-0.24547 -0.48067,2.45469 0,2.70017 0.21631,3.80477 0.48067,2.4547 0.26436,-1.35009 0.26436,-3.55931 0,-4.90939 z m 187.09499,-6.35332 c -0.26439,-1.35008 -0.48067,-0.24546 -0.48067,2.45469 0,2.70017 0.21628,3.80478 0.48067,2.4547 0.26437,-1.35009 0.26437,-3.5593 0,-4.90939 z M 282.52316,735.6754 c -0.26437,-1.35007 -0.48067,-0.24547 -0.48067,2.4547 0,2.70015 0.2163,3.80477 0.48067,2.45469 0.26434,-1.35008 0.26434,-3.5593 0,-4.90939 z m 184.58366,-6.35331 c -0.26438,-1.35007 -0.48068,-0.24546 -0.48068,2.45469 0,2.70017 0.2163,3.80477 0.48068,2.4547 0.26434,-1.35009 0.26434,-3.55931 0,-4.90939 z m -183.328,-3.46544 c -0.26435,-1.35008 -0.48066,-0.24547 -0.48066,2.45469 0,2.70015 0.21631,3.80477 0.48066,2.45469 0.26437,-1.35008 0.26437,-3.5593 0,-4.90938 z m 182.06762,-6.06454 c -0.2709,-1.19124 -0.49254,-0.21657 -0.49254,2.16591 0,2.38249 0.22164,3.35716 0.49254,2.16591 0.27089,-1.19125 0.27089,-3.14056 0,-4.33182 z m -180.81193,-3.75422 c -0.26438,-1.35008 -0.48068,-0.24546 -0.48068,2.45469 0,2.70015 0.2163,3.80476 0.48068,2.45469 0.26435,-1.35008 0.26435,-3.5593 0,-4.90938 z m 179.55626,-6.06453 c -0.27092,-1.19125 -0.49254,-0.21658 -0.49254,2.16591 0,2.38248 0.22162,3.35715 0.49254,2.1659 0.2709,-1.19124 0.2709,-3.14056 0,-4.33181 z m -178.3006,-3.75423 c -0.26438,-1.35007 -0.48067,-0.24546 -0.48067,2.45469 0,2.70015 0.21629,3.80476 0.48067,2.45469 0.26437,-1.35008 0.26437,-3.5593 0,-4.90938 z m 177.04024,-4.61025 c -0.27947,-1.03808 -0.51388,-0.32801 -0.52094,1.57799 -0.007,1.90599 0.2216,2.75536 0.50812,1.88746 0.28651,-0.86788 0.29228,-2.42732 0.0132,-3.46545 z m -175.78456,-5.20851 c -0.26437,-1.35007 -0.48069,-0.24546 -0.48069,2.4547 0,2.70014 0.21631,3.80475 0.48069,2.45468 0.26435,-1.35008 0.26435,-3.5593 0,-4.90938 z m 174.51824,-5.48694 c -0.28772,-0.87359 -0.52311,-0.15885 -0.52311,1.58832 0,1.74716 0.23539,2.46191 0.52311,1.58833 0.28769,-0.87359 0.28769,-2.30308 0,-3.17665 z m -173.26094,-4.31658 c -0.26528,-1.35844 -0.48603,-0.39067 -0.49059,2.15066 -0.005,2.54134 0.21239,3.65282 0.48229,2.46994 0.26981,-1.18281 0.27355,-3.26209 0.008,-4.6206 l -4.8e-4,0 z m 172.00526,-5.50219 c -0.2877,-0.87359 -0.52308,-0.15884 -0.52308,1.58833 0,1.74715 0.23538,2.4619 0.52308,1.58833 0.28771,-0.87359 0.28771,-2.30309 0,-3.17666 z M 290.0588,676.77811 c -0.26527,-1.35846 -0.48602,-0.39068 -0.49058,2.15065 -0.005,2.54133 0.2124,3.65281 0.48229,2.46993 0.26981,-1.18281 0.27354,-3.26207 0.008,-4.62058 l -4.9e-4,0 z m 169.49395,-5.50221 c -0.28772,-0.87359 -0.52312,-0.15883 -0.52312,1.58833 0,1.74715 0.2354,2.4619 0.52312,1.58833 0.2877,-0.87359 0.2877,-2.30309 0,-3.17666 z m -168.23827,-4.31655 c -0.26525,-1.35846 -0.48603,-0.39068 -0.4906,2.15065 -0.005,2.54132 0.2124,3.65281 0.48229,2.46993 0.26982,-1.18281 0.27355,-3.26207 0.008,-4.62058 l -5.1e-4,0 z m 166.98261,-5.50221 c -0.28772,-0.87359 -0.52313,-0.15883 -0.52313,1.58833 0,1.74715 0.23541,2.4619 0.52313,1.58833 0.28769,-0.87359 0.28769,-2.30309 0,-3.17666 z m -165.73327,-4.6206 c -0.27089,-1.19124 -0.49253,-0.21659 -0.49253,2.16592 0,2.38249 0.22164,3.35714 0.49253,2.16589 0.27092,-1.19125 0.27092,-3.14056 0,-4.33181 z m 164.47757,-5.19816 c -0.28767,-0.87359 -0.52309,-0.15883 -0.52309,1.58832 0,1.74716 0.23542,2.46191 0.52309,1.58833 0.28773,-0.87358 0.28773,-2.30308 0,-3.17665 z m -163.22021,-4.03014 c -0.27182,-1.19836 -0.49879,-0.35943 -0.50435,1.86425 -0.005,2.22364 0.21674,3.20408 0.49422,2.17878 0.27737,-1.02532 0.28194,-2.84468 0.0117,-4.04303 l 8e-5,0 z m 161.96622,-5.20313 c -0.28862,-0.87792 -0.53247,-0.29671 -0.54189,1.29162 -0.008,1.58833 0.22672,2.30666 0.52476,1.59625 0.29802,-0.71036 0.30576,-2.00991 0.0174,-2.88787 l 7e-5,0 z m -160.72757,-4.05094 c -0.28769,-0.87357 -0.52309,-0.15882 -0.52309,1.58834 0,1.74716 0.2354,2.4619 0.52309,1.58832 0.28773,-0.87357 0.28773,-2.30308 0,-3.17666 z m 159.47191,-5.76782 c -0.28862,-0.87792 -0.53249,-0.2967 -0.54192,1.29163 -0.008,1.58832 0.22672,2.30665 0.52477,1.59623 0.29805,-0.71035 0.30577,-2.0099 0.0174,-2.88786 l 7e-5,0 z m -158.21625,-4.62851 c -0.28768,-0.87357 -0.52309,-0.15883 -0.52309,1.58833 0,1.74716 0.23541,2.46191 0.52309,1.58833 0.28773,-0.87358 0.28773,-2.30308 0,-3.17666 z m 156.94569,-5.48695 c -0.29929,-0.71475 -0.54418,-0.12995 -0.54418,1.29954 0,1.4295 0.24489,2.01429 0.54418,1.29954 0.29931,-0.71475 0.29931,-1.88434 0,-2.59908 z m -155.69,-4.33181 c -0.28771,-0.87358 -0.52311,-0.15883 -0.52311,1.58833 0,1.74715 0.2354,2.46191 0.52311,1.58833 0.2877,-0.87358 0.2877,-2.30308 0,-3.17666 z m 154.43431,-5.48695 c -0.29928,-0.71475 -0.54415,-0.12995 -0.54415,1.29955 0,1.42949 0.24487,2.01427 0.54415,1.29953 0.29931,-0.71474 0.29931,-1.88433 0,-2.59908 z m -153.17697,-4.3239 c -0.28861,-0.87791 -0.53249,-0.29669 -0.54192,1.29163 -0.008,1.58834 0.22672,2.30666 0.52477,1.59624 0.29806,-0.71036 0.30577,-2.00989 0.0174,-2.88787 l 6e-5,0 z m 151.92325,-4.91053 c -0.30035,-0.7185 -0.5575,-0.26667 -0.57144,1.00401 -0.0132,1.27065 0.2318,1.85846 0.54608,1.30629 0.31428,-0.55221 0.32569,-1.59186 0.0254,-2.3103 l -10e-6,0 z m -150.66758,-4.90823 c -0.28862,-0.87791 -0.53248,-0.29669 -0.54192,1.29163 -0.008,1.58834 0.22671,2.30667 0.52479,1.59626 0.29804,-0.71037 0.30574,-2.00991 0.0174,-2.88789 l 7e-5,0 z m 149.4119,-4.91053 c -0.30034,-0.71851 -0.55749,-0.26666 -0.57143,1.004 -0.0132,1.27066 0.2318,1.85847 0.5461,1.30629 0.31428,-0.5522 0.32568,-1.59184 0.0254,-2.31029 l -10e-6,0 z m -148.15623,-4.90819 c -0.28861,-0.87795 -0.53248,-0.29673 -0.54191,1.29159 -0.008,1.58834 0.22672,2.30667 0.52477,1.59626 0.29805,-0.71036 0.30577,-2.00991 0.0174,-2.88785 l 7e-5,0 z m 146.87024,-3.72609 c -0.40084,-0.46074 -0.69837,-0.32388 -0.75864,0.34897 -0.0545,0.60884 0.24227,0.94999 0.65951,0.75806 0.41725,-0.19193 0.46186,-0.69009 0.099,-1.10703 l 4e-5,0 z m -145.61457,-6.09267 c -0.28862,-0.87795 -0.53249,-0.29673 -0.5419,1.29159 -0.008,1.58834 0.22673,2.30666 0.52475,1.59629 0.29804,-0.71039 0.30577,-2.00994 0.0174,-2.88788 l 7e-5,0 z m 144.36669,-5.20612 c -0.31584,-0.55591 -0.57424,-0.10107 -0.57424,1.01076 0,1.11183 0.2584,1.56667 0.57424,1.01076 0.31582,-0.55592 0.31582,-1.46559 0,-2.02152 z m -143.12397,-4.32506 c -0.30035,-0.71845 -0.5575,-0.26665 -0.57144,1.00402 -0.0132,1.27065 0.23181,1.85848 0.54609,1.30628 0.31428,-0.55223 0.32568,-1.59185 0.0255,-2.3103 l -4e-5,0 z m 141.8683,-5.49369 c -0.31582,-0.55592 -0.57425,-0.10108 -0.57425,1.01075 0,1.11183 0.25843,1.56667 0.57425,1.01076 0.31583,-0.55591 0.31583,-1.46559 0,-2.02151 z m -140.61264,-4.32507 c -0.30035,-0.71845 -0.55749,-0.26665 -0.57143,1.00402 -0.0132,1.27066 0.2318,1.85849 0.5461,1.30628 0.31428,-0.55222 0.32568,-1.59185 0.0254,-2.3103 l -3e-5,0 z m 139.35697,-5.49369 c -0.31584,-0.55592 -0.57425,-0.10108 -0.57425,1.01075 0,1.11183 0.25841,1.56667 0.57425,1.01076 0.31582,-0.55591 0.31582,-1.4656 0,-2.02151 z m -138.11922,-4.03202 c -0.31836,-0.56198 -0.59978,-0.24203 -0.62537,0.71097 -0.0257,0.95299 0.23488,1.41278 0.57886,1.02175 0.34394,-0.39104 0.36488,-1.17077 0.0467,-1.73272 l -7e-5,0 z m 136.86356,-5.78673 c -0.31585,-0.55593 -0.57426,-0.10109 -0.57426,1.01073 0,1.11184 0.25841,1.56668 0.57426,1.01077 0.31582,-0.55591 0.31582,-1.4656 0,-2.0215 z m -135.60788,-4.03203 c -0.31839,-0.56197 -0.59978,-0.24202 -0.62539,0.71097 -0.0257,0.95299 0.2349,1.41278 0.57886,1.02175 0.34396,-0.39104 0.36489,-1.17077 0.0465,-1.73272 l -7e-5,0 z m 134.35221,-5.78674 c -0.31585,-0.55592 -0.57426,-0.10107 -0.57426,1.01075 0,1.11183 0.25841,1.56667 0.57426,1.01076 0.31583,-0.55592 0.31583,-1.4656 0,-2.02151 z m -133.13511,-3.75423 c -0.34833,-0.39709 -0.63334,-0.0723 -0.63334,0.72197 0,0.79417 0.28501,1.11904 0.63334,0.72196 0.34834,-0.39708 0.34834,-1.04685 0,-1.44393 z m 131.87944,-6.06453 c -0.31585,-0.55591 -0.57425,-0.10107 -0.57425,1.01075 0,1.11183 0.2584,1.56667 0.57425,1.01075 0.31582,-0.5559 0.31582,-1.46559 0,-2.0215 z m -130.58519,-4.03202 c -0.31838,-0.56196 -0.5998,-0.24202 -0.62539,0.71097 -0.0257,0.95299 0.23491,1.41277 0.57885,1.02174 0.34394,-0.39103 0.36488,-1.17076 0.0467,-1.73271 l -5e-5,0 z m 129.3341,-5.19817 c -0.31836,-0.56197 -0.59977,-0.24203 -0.62538,0.71098 -0.0257,0.95299 0.2349,1.41277 0.57887,1.02174 0.34395,-0.39104 0.36489,-1.17075 0.0467,-1.73272 l -7e-5,0 z m -128.09086,-4.30671 c -0.40081,-0.46074 -0.69837,-0.32389 -0.75862,0.34896 -0.0545,0.60885 0.24225,0.95 0.65951,0.75807 0.41724,-0.19192 0.46184,-0.69008 0.099,-1.10703 l 5e-5,0 z m 126.8352,-5.51205 c -0.31837,-0.56197 -0.59978,-0.24203 -0.62537,0.71098 -0.0257,0.95298 0.23488,1.41277 0.57886,1.02174 0.34394,-0.39103 0.36489,-1.17076 0.0464,-1.73272 l -7e-5,0 z m -125.57951,-4.30671 c -0.40085,-0.46075 -0.6984,-0.32389 -0.75863,0.34897 -0.0545,0.60884 0.24224,0.94999 0.6595,0.75806 0.41724,-0.19193 0.46185,-0.69009 0.0991,-1.10703 l 6e-5,0 z m 124.32385,-5.51205 c -0.31838,-0.56197 -0.59981,-0.24202 -0.62539,0.71098 -0.0257,0.95298 0.23489,1.41277 0.57884,1.02174 0.34398,-0.39103 0.36489,-1.17076 0.0467,-1.73272 l -6e-5,0 z m -123.09434,-4.92038 c -0.34832,-0.39708 -0.63335,-0.0723 -0.63335,0.72197 0,0.79416 0.28503,1.11905 0.63335,0.72197 0.34834,-0.39709 0.34834,-1.04686 0,-1.44394 z m 121.83864,-4.89838 c -0.31834,-0.56196 -0.59976,-0.24201 -0.62534,0.71097 -0.0257,0.95299 0.23488,1.41278 0.57883,1.02175 0.34395,-0.39103 0.36487,-1.17077 0.0467,-1.73272 l -6e-5,0 z m -1.25566,-9.81876 c -0.31834,-0.56196 -0.59979,-0.24201 -0.62537,0.71097 -0.0257,0.95299 0.23487,1.41278 0.57885,1.02175 0.34396,-0.39103 0.36488,-1.17077 0.0467,-1.73272 l -6e-5,0 z m -1.25567,-9.81876 c -0.31836,-0.56196 -0.59977,-0.24202 -0.62538,0.71097 -0.0257,0.95299 0.23489,1.41279 0.57886,1.02175 0.34396,-0.39103 0.3649,-1.17077 0.0467,-1.73272 l -6e-5,0 z m -1.25567,-9.81877 c -0.31837,-0.56195 -0.59976,-0.24201 -0.62538,0.71098 -0.0257,0.95301 0.2349,1.4128 0.57886,1.02176 0.34396,-0.39104 0.36488,-1.17078 0.0467,-1.73274 l -7e-5,0 z m -1.25566,-9.81876 c -0.31837,-0.56195 -0.5998,-0.24201 -0.62538,0.71098 -0.0257,0.95301 0.23488,1.41279 0.57885,1.02175 0.34395,-0.39103 0.36488,-1.17077 0.0468,-1.73273 l -6e-5,0 z m -1.29424,-9.54095 c -0.34834,-0.39709 -0.63334,-0.0723 -0.63334,0.72196 0,0.79417 0.285,1.11906 0.63334,0.72197 0.34833,-0.39708 0.34833,-1.04686 0,-1.44393 z m -1.25568,-9.81876 c -0.34833,-0.39709 -0.63335,-0.0723 -0.63335,0.72196 0,0.79417 0.28502,1.11905 0.63335,0.72197 0.34834,-0.39708 0.34834,-1.04686 0,-1.44393 z m -1.25566,-9.81876 c -0.34834,-0.39709 -0.63334,-0.0723 -0.63334,0.72196 0,0.79417 0.285,1.11905 0.63334,0.72197 0.34833,-0.39708 0.34833,-1.04685 0,-1.44393 z m -1.25569,-9.81876 c -0.34833,-0.39709 -0.63335,-0.0723 -0.63335,0.72197 0,0.79416 0.28502,1.11904 0.63335,0.72196 0.34834,-0.39708 0.34834,-1.04685 0,-1.44393 z m -1.25566,-9.81876 c -0.34834,-0.39708 -0.63335,-0.0723 -0.63335,0.72197 0,0.79415 0.28501,1.11903 0.63335,0.72195 0.34834,-0.39707 0.34834,-1.04683 0,-1.44392 z m -1.25566,-9.81876 c -0.34835,-0.39708 -0.63336,-0.0723 -0.63336,0.72197 0,0.79416 0.28501,1.11903 0.63336,0.72196 0.34833,-0.39707 0.34833,-1.04684 0,-1.44393 z m -1.25568,-9.81876 c -0.34833,-0.39708 -0.63335,-0.0723 -0.63335,0.72197 0,0.79416 0.28502,1.11905 0.63335,0.72197 0.34834,-0.39709 0.34834,-1.04685 0,-1.44394 z m -1.22952,-9.2051 c -0.40082,-0.46075 -0.69836,-0.32388 -0.75863,0.34897 -0.0545,0.60885 0.24228,0.94999 0.65953,0.75805 0.41723,-0.19192 0.46184,-0.69008 0.099,-1.10702 l 3e-5,0 z m -1.25566,-9.81875 c -0.40083,-0.46075 -0.6984,-0.32389 -0.75864,0.34895 -0.0545,0.60886 0.24225,0.95 0.65951,0.75807 0.41727,-0.19193 0.46185,-0.69008 0.099,-1.10702 l 5e-5,0 z m -1.25567,-9.81876 c -0.40086,-0.46075 -0.69839,-0.32389 -0.75864,0.34895 -0.0545,0.60886 0.24226,0.94999 0.6595,0.75807 0.41725,-0.19192 0.46185,-0.69008 0.099,-1.10702 l 7e-5,0 z m -21.3464,-165.76376 c -0.40086,-0.46075 -0.69839,-0.32391 -0.75864,0.34895 -0.0545,0.60886 0.24226,0.94999 0.6595,0.75806 0.41725,-0.19191 0.46185,-0.69008 0.099,-1.10701 l 7e-5,0 z m -1.28185,-9.85486 c -0.34833,-0.39707 -0.63334,-0.0723 -0.63334,0.72196 0,0.79417 0.28501,1.11906 0.63334,0.72197 0.34834,-0.39708 0.34834,-1.04685 0,-1.44393 z m -1.25566,-9.81875 c -0.34834,-0.39709 -0.63334,-0.0723 -0.63334,0.72195 0,0.79417 0.285,1.11906 0.63334,0.72197 0.34835,-0.39708 0.34835,-1.04685 0,-1.44392 z m -1.21712,-9.51899 c -0.31835,-0.56196 -0.59978,-0.24202 -0.62536,0.71097 -0.0257,0.953 0.23487,1.41279 0.57885,1.02176 0.34394,-0.39104 0.36488,-1.17076 0.0465,-1.73273 l -7e-5,0 z m -1.25566,-9.81876 c -0.31839,-0.56196 -0.59978,-0.24202 -0.6254,0.71097 -0.0257,0.953 0.23491,1.41279 0.57887,1.02176 0.34396,-0.39104 0.36489,-1.17077 0.0468,-1.73273 l -7e-5,0 z m -1.29424,-10.11854 c -0.34834,-0.39709 -0.63336,-0.0723 -0.63336,0.72198 0,0.79416 0.28502,1.11904 0.63336,0.72195 0.34833,-0.39707 0.34833,-1.04685 0,-1.44393 z m -1.19918,-9.81202 c -0.30035,-0.71845 -0.5575,-0.26664 -0.57143,1.00402 -0.0132,1.27066 0.23178,1.85849 0.54609,1.30627 0.31428,-0.55221 0.32567,-1.59183 0.0254,-2.31029 l -2e-5,0 z M 387.96821,114.79 c -0.30035,-0.71845 -0.55749,-0.26664 -0.57145,1.00402 -0.0132,1.27065 0.23182,1.85849 0.5461,1.30627 0.3143,-0.55221 0.3257,-1.59184 0.0255,-2.31029 l -3e-5,0 z m -1.2576,-9.8255 c -0.29928,-0.71473 -0.54416,-0.12995 -0.54416,1.29955 0,1.4295 0.24488,2.01429 0.54416,1.29953 0.2993,-0.71475 0.2993,-1.88433 0,-2.59908 z m -1.24079,-9.522019 c -0.28861,-0.877946 -0.53248,-0.296728 -0.54191,1.291601 -0.008,1.588328 0.22672,2.306653 0.52477,1.596271 0.29804,-0.710382 0.30577,-2.009923 0.0174,-2.887872 l 7e-5,0 z m -1.25568,-9.818759 c -0.28861,-0.877947 -0.53246,-0.296728 -0.54191,1.291601 -0.008,1.588328 0.22673,2.306651 0.52479,1.596271 0.29804,-0.710382 0.30573,-2.009924 0.0174,-2.887872 l 7e-5,0 z M 382.9568,74.641874 c -0.28769,-0.873582 -0.52309,-0.158834 -0.52309,1.588328 0,1.747161 0.2354,2.46191 0.52309,1.588328 0.28772,-0.87358 0.28772,-2.303076 0,-3.176656 z m -1.23864,-9.228305 c -0.27184,-1.198331 -0.49878,-0.359426 -0.50437,1.864235 -0.005,2.22366 0.21673,3.204115 0.49423,2.178786 0.2774,-1.025329 0.28194,-2.844687 0.0117,-4.043021 l 1.1e-4,0 z m -1.25103,-10.105161 c -0.26526,-1.358476 -0.48602,-0.390691 -0.4906,2.150636 -0.005,2.541326 0.2124,3.652808 0.48229,2.469956 0.26982,-1.18285 0.27356,-3.262115 0.008,-4.620592 l -4.7e-4,0 z M 370.33232,52.40527 c -0.34832,-0.397082 -0.63334,-0.0722 -0.63334,0.721969 0,0.794163 0.28502,1.119049 0.63334,0.721967 0.34834,-0.397082 0.34834,-1.046853 0,-1.443936 z m 1.31216,-10.389599 c -0.30035,-0.718451 -0.5575,-0.266642 -0.57142,1.004021 -0.0132,1.270663 0.2318,1.858487 0.54609,1.306276 0.31427,-0.552212 0.32567,-1.591844 0.0254,-2.310297 l -3e-5,0 z"
       id="path4380"
       inkscape:connector-curvature="0" />
    <path
       style="fill:#8dcf8a;fill-opacity:0.88627451;fill-rule:evenodd;stroke:none;stroke-width:0;stroke-linecap:round;stroke-linejoin:bevel;stroke-miterlimit:0;stroke-dasharray:none;stroke-opacity:0.63137255"
       d="m 250.03456,1016.9006 c 2.79431,-32.06874 26.02679,-221.19193 29.14873,-237.28425 1.22016,-6.28946 1.02188,-10.88589 -0.44064,-10.21428 -1.46251,0.67161 -9.41534,52.49839 -17.67294,115.17065 l -15.01385,113.94954 0.50263,-115.17065 0.50262,-115.17064 110.75565,-0.43153 110.75565,-0.43153 1.11893,-4.46935 c 0.61543,-2.45815 1.44419,3.24953 1.84171,12.68372 0.39751,9.43419 6.40826,61.26097 13.35721,115.17065 6.94891,53.90966 13.66764,110.33107 14.93044,125.38077 l 2.29602,27.3632 -127.19765,0 -127.19765,0 2.31314,-26.5463 z"
       id="path4382"
       inkscape:connector-curvature="0" />
    <path
       style="fill:#8dcf8a;fill-opacity:0.88627451;fill-rule:evenodd;stroke:none;stroke-width:0;stroke-linecap:round;stroke-linejoin:bevel;stroke-miterlimit:0;stroke-dasharray:none;stroke-opacity:0.63137255"
       d="m 250.10458,1016.9006 c 1.30808,-14.6006 8.02889,-71.71623 14.93514,-126.92374 6.90625,-55.20749 12.07918,-102.62349 11.49541,-105.36888 -0.5838,-2.74541 -4.80225,22.94338 -9.37436,57.08617 -4.57212,34.14278 -11.15888,82.66148 -14.63727,107.81933 l -6.3243,45.74153 -0.45692,-276.49124 -0.45695,-276.49123 -113.65038,0 c -62.507715,0 -113.650362,-0.36023 -113.650362,-0.80049 0,-0.6573 252.258642,-305.15652 330.232812,-398.621118 11.99329,-14.375911 23.2701,-26.819524 25.05957,-27.652474 1.98337,-0.923196 5.53097,0.990151 9.0869,4.900879 7.91701,8.70687 344.30444,413.867773 347.46032,418.497543 l 2.50549,3.67566 -113.88972,0 -113.88973,0 -0.43381,275.67442 -0.43386,275.67443 -14.78293,-112.23206 c -8.13063,-61.72764 -15.92877,-112.7591 -17.32922,-113.40327 -1.40044,-0.64418 -1.66913,4.28209 -0.59712,10.94724 3.75106,23.32168 26.58838,211.66786 28.85399,237.9673 l 2.28687,26.5463 -127.19395,0 -127.19392,0 2.3783,-26.5463 z m 29.59311,-245.86078 c -0.89332,-1.57237 -1.6242,-0.2859 -1.6242,2.85884 0,3.14472 0.73088,4.43121 1.6242,2.85884 0.89332,-1.57236 0.89332,-4.14533 0,-5.71768 z M 375.65388,22.041245 c -0.84951,-2.032089 -1.57682,-0.75418 -1.61624,2.839798 -0.0395,3.593978 0.65565,5.256596 1.54457,3.694705 0.88893,-1.561888 0.92118,-4.502415 0.0718,-6.534503 l -7e-5,0 z"
       id="path4384"
       inkscape:connector-curvature="0" />
    <path
       style="fill:#8dcf8a;fill-opacity:0.88627451;fill-rule:evenodd;stroke:none;stroke-width:0;stroke-linecap:round;stroke-linejoin:bevel;stroke-miterlimit:0;stroke-dasharray:none;stroke-opacity:0.63137255"
       d="m 248.83691,1031.6708 c 0,-6.4768 4.87404,-51.45463 10.83124,-99.95043 5.95716,-48.49582 10.35223,-90.42875 9.76682,-93.18428 -0.58543,-2.75554 -5.85903,31.37894 -11.71912,75.85441 l -10.65474,80.86451 -0.89814,-276.49124 -0.89816,-276.49123 -113.87945,0 -113.879441,0 2.515945,-3.67566 C 22.982997,434.27079 337.37476,55.248459 357.57928,31.646655 c 7.5828,-8.857836 15.38515,-16.209155 17.3385,-16.336263 1.95338,-0.127109 20.46005,19.985018 41.12595,44.693615 C 506.21361,167.81301 731.851,440.13678 731.851,441.15461 c 0,0.61486 -51.13805,1.11793 -113.64008,1.11793 l -113.64007,0 -0.89821,275.67442 -0.89819,275.67443 -10.11641,-78.41407 c -12.72429,-98.62801 -18.95957,-140.72392 -19.5843,-132.21813 -0.26815,3.65207 5.10102,51.06806 11.93163,105.36891 6.8306,54.30082 13.47472,111.40987 14.76471,126.9087 l 2.34542,28.1801 -126.63929,0 -126.6393,0 0,-11.7761 z m 23.89664,-218.15671 c -0.76623,-3.36935 -1.39313,-0.6126 -1.39313,6.12611 0,6.7387 0.6269,9.49544 1.39313,6.12608 0.76623,-3.36934 0.76623,-8.88283 0,-12.25219 z m 3.50821,-22.87077 c -0.81376,-2.47086 -1.47956,-0.44925 -1.47956,4.49248 0,4.94171 0.6658,6.96333 1.47956,4.49248 0.81375,-2.47087 0.81375,-6.5141 0,-8.98496 z M 471.46063,770.3251 c -1.13375,-1.3032 -1.97532,-0.91611 -2.14573,0.98699 -0.15415,1.72211 0.68516,2.68697 1.86537,2.14414 1.18013,-0.54284 1.30628,-1.95186 0.2802,-3.13113 l 1.6e-4,0 z M 375.49414,23.655824 c -0.98524,-1.123118 -1.79136,-0.204203 -1.79136,2.042033 0,2.246236 0.80612,3.165151 1.79136,2.042032 0.98524,-1.123118 0.98524,-2.960948 0,-4.084065 z"
       id="path4386"
       inkscape:connector-curvature="0" />
    <path
       style="fill:#8dcf8a;fill-opacity:0.88627451;fill-rule:evenodd;stroke:none;stroke-width:0;stroke-linecap:round;stroke-linejoin:bevel;stroke-miterlimit:0;stroke-dasharray:none;stroke-opacity:0.63137255"
       d="m 248.83691,1031.0498 c 0,-6.8186 3.28148,-39.2641 7.29221,-72.10134 4.01071,-32.83722 6.80759,-61.99344 6.21524,-64.7916 -0.59231,-2.79816 -4.27336,18.80423 -8.18009,48.0053 l -7.10316,53.09285 -0.89814,-276.49124 -0.89816,-276.49123 -113.87945,0 -113.879441,0 2.487385,-3.67566 C 22.169959,435.3804 163.97924,264.07039 310.96462,87.094552 c 59.46936,-71.603321 61.48617,-73.803458 65.82452,-71.807938 1.86869,0.859542 18.43666,19.542817 36.81771,41.518392 74.397,88.945784 315.77177,379.942634 317.36459,382.608684 1.60094,2.67967 -5.4407,2.85885 -112.3566,2.85885 l -114.06461,0 0,275.53829 c 0,151.54604 -0.58644,275.23198 -1.3032,274.85761 -0.71678,-0.37438 -5.11186,-30.82109 -9.76683,-67.65936 -4.65497,-36.83826 -8.93763,-64.39176 -9.51697,-61.22998 -0.57936,3.16181 3.01659,38.84979 7.99102,79.30666 4.97444,40.45685 9.04443,79.58874 9.04443,86.95964 l 0,13.4015 -126.0809,0 -126.08087,0 0,-12.3971 z m 16.79351,-161.99241 c -0.76623,-3.36936 -1.39316,-0.61261 -1.39316,6.12609 0,6.73871 0.62693,9.49545 1.39316,6.1261 0.76623,-3.36936 0.76623,-8.88285 0,-12.25219 z m 3.50821,-24.5044 c -0.81377,-2.47086 -1.47957,-0.44924 -1.47957,4.49248 0,4.94172 0.6658,6.96332 1.47957,4.49246 0.81374,-2.47085 0.81374,-6.51407 0,-8.98494 z m 213.15568,-5.67451 c -0.75028,-3.84235 -1.37468,-1.10503 -1.38757,6.08291 -0.0148,7.18796 0.60097,10.3317 1.36409,6.98609 0.76316,-3.34559 0.7737,-9.22665 0.025,-13.069 l -0.001,0 z m -3.56945,-26.99802 c -0.76624,-3.36934 -1.39313,-0.6126 -1.39313,6.12611 0,6.7387 0.62689,9.49545 1.39313,6.12609 0.76622,-3.36934 0.76622,-8.88283 0,-12.2522 z m -206.13031,4.90088 c -0.89333,-1.57236 -1.62423,-0.28588 -1.62423,2.85886 0,3.14473 0.7309,4.4312 1.62423,2.85884 0.89332,-1.57237 0.89332,-4.14533 0,-5.7177 z m 202.49798,-28.58845 c -0.84652,-2.02161 -1.53914,-0.36757 -1.53914,3.67565 0,4.04324 0.69262,5.69727 1.53914,3.67566 0.84654,-2.02161 0.84654,-5.3297 0,-7.35131 z"
       id="path4388"
       inkscape:connector-curvature="0" />
    <path
       style="fill:#8dcf8a;fill-opacity:0.88627451;fill-rule:evenodd;stroke:none;stroke-width:0;stroke-linecap:round;stroke-linejoin:bevel;stroke-miterlimit:0;stroke-dasharray:none;stroke-opacity:0.63137255"
       d="m 250.0081,1015.2668 c 1.25941,-15.49883 3.01294,-37.73664 3.89672,-49.41706 l 1.60688,-21.23715 -3.23323,20.42034 c -1.77826,11.23118 -3.82342,22.62572 -4.54478,25.3212 -0.72137,2.69548 -1.56736,-119.52017 -1.87996,-271.59036 l -0.5684,-276.49123 -113.65038,0 c -62.507715,0 -113.650362,-0.44875 -113.650362,-0.99722 0,-1.31959 17.82608,-22.94022 176.970652,-214.64146 C 367.86356,18.353233 368.80113,17.239325 372.72436,15.434745 c 2.04718,-0.941638 4.64358,-0.364761 6.80155,1.511189 5.63461,4.898219 347.72142,416.083376 351.47344,422.467756 1.57464,2.67941 -5.47925,2.85885 -112.38451,2.85885 l -114.06461,0 0,275.53829 c 0,151.54604 -0.62965,275.23198 -1.39928,274.85761 -0.76957,-0.37438 -3.55263,-17.95628 -6.18449,-39.0709 -2.63189,-21.11462 -5.31459,-36.32189 -5.96158,-33.79396 -0.64694,2.52796 1.33695,25.05896 4.40875,50.06891 3.07177,25.00997 5.58505,51.79551 5.58505,59.52361 l 0,14.0508 -126.64019,0 -126.64022,0 2.28983,-28.1801 z m 8.51917,-90.66613 c -0.76623,-3.36934 -1.39314,-0.6126 -1.39314,6.12611 0,6.73871 0.62691,9.49545 1.39314,6.12609 0.76623,-3.36936 0.76623,-8.88284 0,-12.2522 z m 3.50818,-24.50438 c -0.81374,-2.47087 -1.47954,-0.44926 -1.47954,4.49247 0,4.94172 0.6658,6.96332 1.47954,4.49247 0.81375,-2.47087 0.81375,-6.51409 0,-8.98494 z m 227.36199,-5.67452 c -0.75027,-3.84235 -1.37467,-1.10504 -1.38755,6.08292 -0.0148,7.18796 0.60096,10.33169 1.36407,6.98609 0.76319,-3.34561 0.77373,-9.22666 0.025,-13.06901 l -10e-4,0 z m -3.61283,-25.36438 c -0.81372,-2.47086 -1.47954,-0.44926 -1.47954,4.49247 0,4.94171 0.66582,6.96333 1.47954,4.49248 0.81379,-2.47087 0.81379,-6.5141 0,-8.98495 z m -220.22951,2.46949 c -0.84952,-2.03209 -1.57684,-0.75419 -1.61626,2.83979 -0.0393,3.59398 0.65564,5.2566 1.54457,3.6947 0.88893,-1.56189 0.92118,-4.50242 0.0718,-6.53449 z m 3.46581,-24.42134 c -1.13375,-1.3032 -1.97532,-0.91611 -2.14576,0.98698 -0.15416,1.7221 0.68522,2.68698 1.86537,2.14414 1.18016,-0.54285 1.30633,-1.95187 0.28039,-3.13112 z m 213.1802,-4.98394 c -0.8495,-2.03208 -1.57682,-0.75419 -1.61624,2.83979 -0.0395,3.59399 0.65565,5.25661 1.54457,3.69471 0.88893,-1.56189 0.92118,-4.50242 0.0718,-6.5345 l -1.1e-4,0 z m -3.55158,-27.77165 c -0.8495,-2.03208 -1.57682,-0.75418 -1.61626,2.8398 -0.0393,3.59398 0.65567,5.2566 1.54459,3.69471 0.88894,-1.56189 0.92117,-4.50243 0.0718,-6.53451 l -8e-5,0 z"
       id="path4390"
       inkscape:connector-curvature="0" />
    <path
       style="fill:#8dcf8a;fill-opacity:0.88627451;fill-rule:evenodd;stroke:none;stroke-width:0;stroke-linecap:round;stroke-linejoin:bevel;stroke-miterlimit:0;stroke-dasharray:none;stroke-opacity:0.63137255"
       d="m 249.53047,1008.7325 c 0.98676,-19.09308 0.71113,-29.93627 -0.6125,-24.09607 -1.32366,5.84023 -2.68249,-113.80247 -3.01965,-265.87266 l -0.61299,-276.49123 -114.06461,0 c -106.913408,0 -113.957912,-0.17923 -112.363126,-2.85885 3.307528,-5.55732 337.535966,-408.034747 347.532836,-418.498516 4.48139,-4.690739 8.12561,-6.674143 10.36775,-5.642813 4.37108,2.010575 7.93408,6.220054 152.63014,180.322609 C 708.3446,410.92051 731.851,439.40121 731.851,440.90201 c 0,0.75379 -51.14268,1.37053 -113.65039,1.37053 l -113.65038,0 -0.62716,275.67442 c -0.34486,151.62093 -1.71528,270.5285 -3.04519,264.23904 -1.32992,-6.28946 -1.60727,4.9213 -0.61635,24.9127 l 1.80172,36.3482 -127.16343,0 -127.16348,0 1.79413,-34.7144 z m 246.97012,-57.13382 c -0.75025,-3.84235 -1.37465,-1.10502 -1.38754,6.08293 -0.0148,7.18795 0.60095,10.33168 1.36406,6.98609 0.76317,-3.3456 0.77373,-9.22667 0.025,-13.06902 l -0.001,0 z m -241.56828,4.04089 c -0.81375,-2.47085 -1.47953,-0.44924 -1.47953,4.49248 0,4.94172 0.66578,6.96333 1.47953,4.49246 0.81374,-2.47085 0.81374,-6.51408 0,-8.98494 z m 237.98556,-30.19282 c -0.79042,-2.9362 -1.45348,-0.92776 -1.47339,4.46321 -0.0217,5.39097 0.62677,7.79331 1.43718,5.33854 0.81037,-2.45476 0.82667,-6.86556 0.0362,-9.80175 z m -234.47136,1.60436 c -0.84651,-2.02161 -1.53914,-0.36756 -1.53914,3.67567 0,4.04322 0.69263,5.69726 1.53914,3.67565 0.84654,-2.02162 0.84654,-5.32971 0,-7.35132 z m 3.50633,-25.29012 c -0.90049,-1.58947 -1.69645,-0.68453 -1.76884,2.01095 -0.0722,2.69548 0.6644,3.99594 1.63723,2.88994 0.97285,-1.10602 1.03208,-3.31141 0.13161,-4.90089 z m 227.34599,-4.11514 c -0.84651,-2.02161 -1.53916,-0.36757 -1.53916,3.67566 0,4.04321 0.69265,5.69726 1.53916,3.67565 0.84655,-2.02161 0.84655,-5.32971 0,-7.35131 z m -3.59682,-25.29013 c -0.90048,-1.58947 -1.69645,-0.68453 -1.76884,2.01095 -0.0726,2.69547 0.66436,3.99594 1.63726,2.88994 0.97283,-1.10602 1.03205,-3.31141 0.13178,-4.90089 l -1.6e-4,0 z m -220.23266,0.88782 c -1.13379,-1.30318 -1.97536,-0.9161 -2.14576,0.987 -0.15415,1.7221 0.6852,2.68697 1.86537,2.14413 1.18014,-0.54284 1.30633,-1.95185 0.28039,-3.13113 z m 216.64599,-29.40527 c -1.13374,-1.30317 -1.97531,-0.9161 -2.14571,0.98699 -0.15416,1.7221 0.68516,2.68698 1.86534,2.14414 1.18016,-0.54284 1.30631,-1.95185 0.28023,-3.13113 l 1.4e-4,0 z"
       id="path4392"
       inkscape:connector-curvature="0" />
  </g>
</svg>
